<?xml version="1.0"?><svg width="640" height="480" xmlns="http://www.w3.org/2000/svg">
 <title>orange penguin</title>
 <metadata id="metadata3894">image/svg+xml</metadata>
 <g>
  <title>Layer 1</title>
  <g display="inline" id="layer5"/>
  <g id="layer4">
   <path d="m167.917999,382.720001c0.154007,-1.524994 1.399994,-5.423004 2.309006,-7.226013c0.658997,-1.306 2.007996,-2.368988 4.167999,-3.280975c1.996994,-0.845001 3.733002,-0.848999 7.778992,-0.019012c2.893005,0.592987 3.434998,0.618011 6.044006,0.278992c1.666,-0.216003 4.097992,-0.819 5.813004,-1.440002c1.620987,-0.588989 4.457993,-1.411987 6.304001,-1.829987c6.138,-1.389008 10.975998,-3.227997 13.730988,-5.218018c1.764008,-1.273987 5.093002,-4.592987 5.093002,-5.076996c0,-0.328003 -3.205002,-4.592987 -4.645996,-6.181976c-1.792999,-1.97702 -7.300003,-7.501007 -10.522995,-10.555023c-1.863998,-1.766998 -4.16301,-4.106995 -5.109009,-5.200989c-0.945999,-1.093994 -2.310989,-2.569 -3.035004,-3.278015c-3.799988,-3.723999 -4.497986,-4.441986 -5.921997,-6.093994c-0.849991,-0.987 -2.427994,-2.964996 -3.505997,-4.394989c-1.078003,-1.431 -2.102005,-2.756012 -2.276993,-2.946014c-0.175003,-0.188995 -0.486008,-0.60199 -0.69101,-0.917999c-2.735001,-4.211975 -3.735992,-5.737 -4.72699,-7.198975c-0.645004,-0.952026 -1.172012,-1.870026 -1.172012,-2.040009c0,-0.170013 -0.60199,-1.593994 -1.337997,-3.164001c-0.735001,-1.570007 -1.427994,-3.239014 -1.537994,-3.709015c-0.201996,-0.85199 -0.796005,-0.882996 -0.796005,-0.040985c0,0.243988 -0.121994,0.68399 -0.272003,0.975983c-0.479996,0.934021 -1.256989,3.920013 -1.261002,4.841003c-0.001999,0.490021 -0.274994,1.993011 -0.605988,3.33902c-0.811005,3.292999 -0.493011,8.246979 0.82399,12.837982c0.951004,3.315002 0.970001,4.356995 0.125,6.739014c-0.838989,2.362 -1.979996,3.506989 -3.845001,3.85498c-2.475998,0.463013 -5.179001,-0.415985 -8.087997,-2.627991c-1.748993,-1.329987 -6.763,-6.46701 -6.763,-6.928986c0,-0.127014 -0.599991,-1.098999 -1.332001,-2.15802c-2.493988,-3.606995 -4.744995,-8.229004 -5.82399,-11.959991c-2.404007,-8.312012 -3.702011,-25.404999 -2.471008,-32.529999c0.738007,-4.265015 2.188004,-9.117004 3.514999,-11.756989c1.318008,-2.621002 1.444,-3.190002 0.790009,-3.565002c-0.235001,-0.134003 -1.259003,-1.350006 -2.277008,-2.701019c-1.01799,-1.350983 -2.626999,-3.277985 -3.574997,-4.28299c-2.960999,-3.138 -5.895004,-7.845001 -9.707001,-15.574005c-1.156006,-2.343994 -2.354004,-4.61499 -2.660995,-5.047989c-0.940002,-1.322006 -5.631004,-10.758011 -6.398003,-12.87001c-0.397003,-1.093994 -2.005005,-4.410995 -3.574005,-7.371994c-1.567993,-2.960007 -3.344994,-6.677002 -3.948997,-8.259995c-1.378998,-3.613007 -2.938995,-6.948013 -3.448997,-7.371002c-0.215004,-0.178009 -0.390999,-0.513 -0.390999,-0.744003c0,-0.231995 -0.677002,-2.251007 -1.505005,-4.487c-2.071999,-5.597 -3.290001,-10.509003 -4.037994,-16.281006c-0.567001,-4.376999 -0.611,-5.768997 -0.416,-13.155991c0.376999,-14.275009 0.366997,-14.611008 -0.550003,-18.203003c-0.450996,-1.766998 -0.976997,-4.24501 -1.167999,-5.507004c-0.435997,-2.873993 -0.435997,-9.794006 0,-13.531998c0.321999,-2.756004 0.576996,-5.211998 1.232002,-11.862c0.194,-1.979004 0.669998,-4.299004 1.238998,-6.042c0.558998,-1.714005 0.922997,-3.475006 0.922997,-4.466003c0,-1.464996 -0.151001,-1.845001 -1.452995,-3.646996c-0.799004,-1.107002 -3.105003,-3.820702 -5.125,-6.031006c-2.018799,-2.210396 -4.1241,-4.596001 -4.678001,-5.301399c-1.472404,-1.875198 -4.761902,-6.8797 -5.568802,-8.472198c-0.383598,-0.757202 -1.074699,-1.927498 -1.535599,-2.600502c-1.032303,-1.507599 -2.962799,-4.926796 -3.378799,-5.984497c-0.181503,-0.461601 -0.712402,-0.926003 -1.292603,-1.130798c-1.654396,-0.583504 -7.170395,-1.9104 -7.923798,-1.905899c-0.633102,0.003998 -4.903999,-0.733307 -11.570404,-1.996704c-1.2621,-0.239197 -3.292297,-0.509201 -4.511597,-0.599998c-1.219398,-0.090797 -2.770302,-0.386497 -3.446701,-0.657104c-1.0177,-0.407196 -1.386101,-0.427193 -2.137199,-0.116096c-2.037399,0.843903 -2.337101,-0.284203 -0.868198,-3.267998c1.111198,-2.257202 2.810398,-3.9146 6.495098,-6.335403c7.232597,-4.751598 13.813202,-6.6898 25.080498,-7.386799c2.874802,-0.177799 4.802406,-0.873699 5.372902,-1.939899c0.868004,-1.6217 5.648003,-6.6437 7.692604,-8.081902c1.248596,-0.878597 2.890594,-2.0574 3.647598,-2.6194c1.747002,-1.296997 7.463997,-4.18 8.873001,-4.4748c0.588997,-0.123199 2.033997,-0.646198 3.211998,-1.161999c2.532997,-1.109301 4.912003,-1.8204 9.473,-2.831499c5.730003,-1.2705 7.592003,-1.421701 13.172005,-1.069601c8.328003,0.5254 13.381989,1.566401 15.565994,3.205902c0.522003,0.392399 1.981995,1.2258 3.244003,1.851997c5.339996,2.650002 14.520004,9.376202 16.850998,12.3475c0.576004,0.7341 1.634995,2.0368 2.352997,2.894901c0.718002,0.858101 1.444,2.070999 1.612,2.6954c0.167999,0.624401 0.439011,1.180298 0.602005,1.235401c0.369995,0.125 2.740997,6.2976 2.746994,7.152199c0.003006,0.345001 0.133011,0.757999 0.290009,0.9179c0.617996,0.629799 1.759003,6.074497 2.897995,13.825703c0.408997,2.782898 0.865997,5.143799 1.016006,5.246597c0.149002,0.102798 0.447998,0.621101 0.661987,1.151802c0.215012,0.530701 1.102005,1.657997 1.971008,2.504997c0.869995,0.847 2.699005,2.634598 4.065994,3.972397c1.365997,1.337807 4.188004,3.715202 6.271011,5.283203c3.677994,2.7677 4.927994,3.874702 13.224991,11.710602c7.432007,7.017998 8.087997,7.721001 9.837997,10.549995c0.431,0.698006 3.110001,4.764 4.496002,6.824005c0.639999,0.951996 1.164001,1.813995 1.164001,1.915001c0,0.344994 3.468994,4.917992 4.429001,5.83799c0.526001,0.505005 1.766998,1.468002 2.757004,2.142014c0.98999,0.672989 2.565994,1.918991 3.501999,2.768997c0.936996,0.850998 2.115997,1.804993 2.619995,2.121002c2.677002,1.673996 10.908005,9.576996 14.820999,14.230988c1.061005,1.262009 2.573013,2.983002 3.358994,3.824005c0.787018,0.841995 1.731018,2.050003 2.098999,2.686005c0.367004,0.636002 1.468018,2.218994 2.445007,3.51799c2.971008,3.951004 5.919006,8.478012 9.410004,14.448013c1.131989,1.934998 2.233002,3.723999 2.447998,3.97699c0.214996,0.251999 0.82901,1.285004 1.36499,2.294006c0.536011,1.009995 1.295013,2.386993 1.687012,3.059998c0.391998,0.673004 0.723999,1.397995 0.738007,1.610992c0.013,0.213013 0.626984,1.384003 1.363007,2.601013c0.735992,1.216995 1.639984,2.832001 2.007996,3.588989c0.367981,0.758011 1.415985,2.684998 2.328979,4.284012c2.466003,4.316986 8.09201,15.62999 8.09201,16.269989c0,0.306 0.117004,0.557007 0.26001,0.557007c0.143005,0 0.514984,0.619003 0.826996,1.375992c0.312988,0.758011 0.677002,1.376999 0.811005,1.376999c0.134003,0 0.242981,0.129013 0.242981,0.287003c0,0.481003 3.714996,7.202011 7.153015,12.940002c1.786987,2.984009 3.25,5.565994 3.25,5.737c0,0.171005 0.10498,0.311005 0.233002,0.311005c0.127991,0 0.368988,0.274994 0.535004,0.610992c0.598999,1.210007 3.806976,6.652008 6.042999,10.25c1.255981,2.019012 2.716003,4.497009 3.244995,5.507004c0.528992,1.009003 1.092987,2.042007 1.253998,2.294006c0.160004,0.252991 1.682007,3.349991 3.381989,6.883987c1.700012,3.533997 3.479004,7.182007 3.955017,8.108002c0.850983,1.656006 4.604004,10.016998 4.604004,10.257019c0,0.066986 0.777985,1.744995 1.72699,3.727997c0.950012,1.983978 2.480011,5.395996 3.399994,7.583984c2.117004,5.03302 3.619019,8.591003 5.427002,12.848999c2.591003,6.106018 4.21701,10.864014 6.27301,18.356995c2.273987,8.289001 3.270996,10.94101 5.403992,14.372009c0.730011,1.173004 1.326996,2.246002 1.326996,2.384003c0,0.313995 1.880005,2.40799 3.595001,4.002991c0.714996,0.666016 1.300018,1.333008 1.300018,1.484009c0,0.549011 -4.46402,4.921997 -5.456024,5.345001c-0.561005,0.23999 -2.143982,0.503998 -3.518005,0.587006c-1.373993,0.083984 -3.737,0.395996 -5.25,0.692993c-2.751984,0.540009 -2.751984,0.540009 -2.925995,1.59201c-0.293976,1.77298 -1.587982,3.479004 -2.987976,3.940979c-1.54303,0.509003 -6.202026,-0.001984 -8.134003,-0.890991c-0.694,-0.320007 -1.298004,-0.445984 -1.357025,-0.28299c-0.057983,0.161987 0.114014,0.843994 0.382019,1.513977c0.628998,1.570007 0.645996,3.614014 0.03299,3.84903c-0.467987,0.179993 -3.31601,-0.401001 -4.134003,-0.84201c-1.123993,-0.608002 -3.371979,-1.494019 -3.789978,-1.494019c-0.252014,0 -1.877014,-0.463989 -3.611023,-1.031982c-1.734985,-0.567993 -3.880005,-1.131989 -4.768005,-1.253998c-0.888,-0.121002 -2.333984,-0.414001 -3.211975,-0.651001c-1.623016,-0.436005 -10.008026,-1.688995 -15.100006,-2.256012c-3.205017,-0.356995 -14.162994,-0.460999 -15.820007,-0.149994c-0.790009,0.14801 -1.285004,0.487 -1.709991,1.170013c-0.32901,0.527985 -1.298004,1.648987 -2.153015,2.490997c-0.85498,0.841003 -2.17099,2.380005 -2.923981,3.419983c-1.178009,1.625 -1.370026,2.100006 -1.370026,3.386017c0,2.979004 -0.865997,4.817993 -3.58197,7.600983c-2.055023,2.106995 -2.517029,2.247009 -8.108002,2.455017c-6.188019,0.230988 -10.657013,-0.170013 -13.680008,-1.229004c-1.249008,-0.437012 -2.373001,-0.795013 -2.498001,-0.795013c-0.124008,0 -0.654007,0.695007 -1.177002,1.545013c-0.522003,0.848999 -1.449997,1.984985 -2.061005,2.523987c-0.610992,0.537994 -1.399002,1.238007 -1.752991,1.554993c-2.425003,2.176025 -7.375,2.847015 -19.916,2.699005c-9.846008,-0.115997 -18.525009,0.337006 -21.569,1.124023c-1.262009,0.325989 -3.052002,0.688995 -3.978012,0.806c-0.924988,0.116974 -2.439987,0.419983 -3.36499,0.673981c-1.259003,0.346008 -3.182999,0.453003 -7.649002,0.425995c-5.630005,-0.033997 -9.895004,0.247009 -11.083008,0.730011c-0.466995,0.190002 -0.511993,0.048004 -0.384995,-1.210999l0,0zm10.651001,-2.360016c3.738007,0.007019 6.261002,-0.135986 7.701004,-0.436981c1.177994,-0.246002 4,-0.705017 6.272003,-1.019989c2.271988,-0.315002 5.024994,-0.782013 6.118988,-1.037018c1.094009,-0.256012 3.365005,-0.562012 5.048004,-0.681c1.682999,-0.118988 3.307999,-0.345001 3.612,-0.501984c0.307999,-0.159027 5.677002,-0.317017 12.085007,-0.355011c10.404999,-0.062988 11.704987,-0.127014 13.306992,-0.653015c2.326996,-0.764984 3.949997,-2.177979 4.638,-4.039001c0.298996,-0.80899 1.406998,-3.259979 2.462006,-5.447998c1.054993,-2.186981 2.406998,-5.04599 3.00499,-6.35199c0.597,-1.306 1.383011,-2.790985 1.74501,-3.299988c0.362,-0.507996 0.576996,-1.137024 0.47699,-1.397003c-0.145996,-0.382019 -0.35199,-0.300018 -1.080994,0.427979c-2.537003,2.537018 -6.768005,4.519012 -11.615997,5.440002c-2.568008,0.489014 -3.257004,0.506012 -6.388,0.163025c-3.509995,-0.38501 -3.509995,-0.38501 -4.334,0.516998c-0.453995,0.496979 -1.395004,1.279999 -2.091995,1.740997c-0.696014,0.460999 -1.634003,1.319977 -2.082001,1.90799c-0.449005,0.588989 -1.283005,1.265015 -1.853012,1.502991c-0.569992,0.239014 -1.702988,0.844025 -2.51799,1.345001c-0.814011,0.501007 -1.682999,0.911011 -1.931,0.911011c-0.248001,0 -1.266006,0.253998 -2.261002,0.565002c-0.994995,0.311005 -3.255005,0.94101 -5.022003,1.398987c-1.766998,0.457001 -4.106995,1.295013 -5.201004,1.861023c-1.418991,0.733978 -2.858002,1.168976 -5.018997,1.515991c-3.436996,0.553009 -10.227997,0.647003 -12.690994,0.174988c-2.908997,-0.557007 -5.397003,-0.401978 -7.190002,0.446014c-1.516998,0.717987 -1.632004,0.852997 -1.970001,2.317993c-0.197998,0.855988 -0.358994,1.813995 -0.358994,2.130005c0,0.605988 0.877991,1.276001 1.316986,1.003998c0.143005,-0.088013 2.762009,-0.154999 5.820007,-0.149017l0,0zm83.243011,-11.260986c2.312988,-0.290985 2.928986,-0.737 2.937988,-2.127991c0.006989,-0.994995 1.005005,-4.860016 1.488007,-5.763c0.602997,-1.126007 3.048004,-4.542999 3.548981,-4.958008c0.256012,-0.212006 0.465027,-0.644989 0.465027,-0.960999c0,-0.791016 -1.481018,-0.764008 -3.151001,0.05899c-1.995026,0.984009 -4.100006,1.708008 -7.087006,2.438995c-3.419006,0.837006 -6.008011,0.707001 -9.632004,-0.485992c-1.848999,-0.608002 -2.619003,-0.746002 -2.706009,-0.483002c-0.067993,0.201996 -0.452988,0.76001 -0.855988,1.239014c-0.763,0.906006 -2.259003,3.888 -2.265015,4.510986c-0.001999,0.197021 -0.483994,1.363007 -1.072998,2.59201c-1.350998,2.819 -1.371994,3.322998 -0.132996,3.322998c0.516006,0 1.238007,0.166992 1.606003,0.372009c0.367996,0.205994 1.425003,0.463989 2.350998,0.574982c2.089005,0.248993 11.610992,0.032013 14.506012,-0.330994l0,0zm-30.623016,-10.252014c0.966003,-0.251984 3.630005,-1.377991 5.919006,-2.501984c3.468994,-1.70401 4.501999,-2.378998 6.207001,-4.054993c2.503998,-2.463013 3.475998,-3.899017 4.488998,-6.632996c1.197998,-3.235016 1.337997,-3.815002 1.337997,-5.56601c0,-1.768005 -1.380005,-5.519012 -3.173004,-8.627991c-0.533997,-0.925018 -1.140991,-2.070007 -1.348999,-2.544006c-0.832993,-1.89502 -3.996002,-6.378998 -6.289993,-8.917999c-0.694,-0.768005 -3.673996,-4.787018 -5.033997,-6.789001c-0.554001,-0.815002 -2.047012,-2.975006 -3.318008,-4.799011c-2.994995,-4.298004 -9.910995,-16.53598 -11.791992,-20.865997c-2.451004,-5.641998 -4.546997,-13.431 -5.307007,-19.720001c-0.224991,-1.869995 -1.817001,-9.648987 -2.315994,-11.320007c-0.439011,-1.471985 -1.921005,-4.876984 -2.126999,-4.886993c-0.09201,-0.00499 -0.354004,0.508011 -0.581009,1.139008c-1.386993,3.85199 -3.437988,7.60199 -6.397995,11.701996c-4.042007,5.597992 -4.987,6.727997 -9.585007,11.462006c-1.966995,2.026001 -3.889999,4.096008 -4.272995,4.600006c-0.382996,0.505005 -0.778992,0.987 -0.880997,1.070984c-0.102005,0.084015 -1.028,1.255005 -2.059006,2.601013c-1.030991,1.345978 -2.153992,2.80899 -2.494995,3.251007c-0.341003,0.441986 -1.081009,1.681 -1.645996,2.752991c-0.564011,1.072998 -1.684006,3.15799 -2.487,4.634003c-0.998001,1.833984 -1.406006,2.899994 -1.28801,3.365997c0.095001,0.373993 1.130997,1.988983 2.302002,3.587982c1.171997,1.598022 3.042007,4.258026 4.156006,5.911011c1.113998,1.653015 2.552994,3.580017 3.197998,4.28299c0.645004,0.703003 1.543991,1.82901 1.996994,2.502014c0.45401,0.673004 2.020004,2.645996 3.480011,4.384003c1.459991,1.737 2.956985,3.570984 3.326996,4.074982c0.369995,0.504028 2.362991,2.706024 4.429001,4.894012c4.672989,4.947998 4.973999,5.279999 7.964996,8.752014c1.341003,1.556 2.610992,2.932983 2.822006,3.05899c0.210999,0.126984 0.783997,0.781982 1.272995,1.455994c0.488998,0.674011 1.612,1.89801 2.494995,2.718994c0.884003,0.821014 1.60701,1.617004 1.60701,1.769012c0,0.152985 0.252991,0.549011 0.562988,0.881989c0.309006,0.332001 0.756012,0.980011 0.993011,1.440002c0.237,0.459991 1.22699,1.869019 2.199997,3.131012c0.972992,1.261993 2.074997,2.691986 2.447998,3.177979c0.373993,0.485016 0.932999,1.105011 1.242004,1.376007c0.30899,0.272003 0.962997,1.067993 1.451996,1.770996c0.867996,1.247009 1.649002,1.582001 4.421997,1.899017c0.175003,0.019989 1.109009,-0.170013 2.074997,-0.421021l0,0zm30.218018,-4.755981c1.108978,-0.156006 2.760986,-0.610016 3.67099,-1.009003c0.911011,-0.398987 2.93399,-1.088989 4.497009,-1.533997c1.561981,-0.445007 3.695984,-1.257019 4.741974,-1.804016c1.901001,-0.994995 1.901001,-0.994995 9.226013,-0.953979c4.028992,0.02298 8.985016,0.195984 11.014008,0.384979c2.028992,0.189026 5.546997,0.484009 7.819,0.656006c2.272003,0.171021 5.299988,0.502014 6.730988,0.733002c1.429993,0.231995 3.576996,0.567993 4.77002,0.747009c1.192993,0.178986 3.788971,0.816986 5.768982,1.416992c3.76001,1.140015 4.451996,1.112 4.451996,-0.178009c0,-0.923981 0.677002,-2.118988 1.196014,-2.110992c0.268005,0.003998 1.312988,0.363007 2.321991,0.796997c2.299011,0.989014 4.424011,1.615021 6.529999,1.921997c1.632996,0.238007 1.632996,0.238007 1.416992,-0.708984c-0.306976,-1.34201 -0.218994,-4.061005 0.154022,-4.757996c0.279999,-0.524017 0.550995,-0.569 2.445984,-0.410004c1.559998,0.130981 3.097992,-0.007019 5.735992,-0.514008c1.982025,-0.380005 3.810028,-0.792999 4.063019,-0.917999c0.819,-0.403992 0.540009,-1.625 -0.524017,-2.295013c-0.539978,-0.339996 -0.987976,-0.77298 -0.993988,-0.962982c-0.006012,-0.190002 -0.217987,-0.515991 -0.471008,-0.726013c-0.251984,-0.208984 -0.458984,-0.621979 -0.458984,-0.916992c0,-0.29599 -0.205994,-0.708984 -0.459015,-0.917999c-0.251984,-0.209991 -0.458984,-0.647003 -0.458984,-0.971985c0,-0.326019 -0.261017,-1.169006 -0.580994,-1.875c-1.237,-2.729004 -2.21701,-5.312012 -2.462006,-6.485016c-0.140015,-0.673004 -0.630005,-2.463013 -1.08902,-3.97699c-0.881989,-2.912994 -0.959991,-3.190002 -1.992004,-7.027008c-0.626984,-2.333008 -2.35498,-7.25 -3.228973,-9.187988c-1,-2.21701 -1.661011,-3.933014 -1.661011,-4.313019c0,-0.580994 -1.514008,-3.822998 -2.02301,-4.332001c-0.233002,-0.233002 -0.423981,-0.571991 -0.423981,-0.753998c0,-0.182007 -0.32901,-1.031982 -0.731018,-1.889984c-0.401978,-0.859009 -1.110992,-2.731018 -1.575989,-4.161011c-0.464996,-1.429993 -1.554016,-4.04599 -2.419006,-5.812988c-0.86499,-1.766998 -1.759003,-3.694 -1.984985,-4.28302c-0.463013,-1.200989 -1.744019,-4.341003 -2.248016,-5.506989c-0.182007,-0.42099 -0.492981,-1.178009 -0.69101,-1.683014c-0.196991,-0.504974 -0.860992,-2.139984 -1.473999,-3.632996c-0.612976,-1.493988 -1.113983,-2.973999 -1.113983,-3.289001c0,-0.315979 -0.171997,-0.579987 -0.381989,-0.587982c-0.211029,-0.007996 -0.72702,-0.699005 -1.14801,-1.537018c-3.806,-7.580994 -6.119019,-12.273987 -6.119019,-12.415985c0,-0.093994 -0.343994,-0.580002 -0.763977,-1.080002c-0.421021,-0.5 -0.765015,-1.233002 -0.765015,-1.628006c0,-0.395996 -0.207001,-0.925995 -0.458984,-1.179001c-0.253021,-0.251999 -0.459015,-0.606003 -0.459015,-0.785995c0,-0.181 -0.102997,-0.328003 -0.22998,-0.32901c-0.126007,0 -0.630005,-0.722992 -1.120026,-1.605988c-0.490997,-0.883011 -1.281982,-2.181 -1.759979,-2.88501c-0.47702,-0.703003 -0.867004,-1.537994 -0.867004,-1.853989c0,-0.317001 -0.247009,-0.843002 -0.549011,-1.169006c-0.529999,-0.572998 -2.531982,-3.835007 -4.682983,-7.630005c-0.572021,-1.009003 -1.207001,-2.110992 -1.410004,-2.446991c-0.20401,-0.337006 -0.617004,-1.094009 -0.917999,-1.682999c-0.300995,-0.589005 -0.619019,-1.139008 -0.705994,-1.223999c-0.298004,-0.287003 -2.153015,-3.820007 -3.856018,-7.34201c-0.934998,-1.934998 -2.238983,-4.567993 -2.897003,-5.848999c-0.65799,-1.283005 -1.195984,-2.675003 -1.195984,-3.093994c0,-0.419998 -0.414001,-1.283005 -0.917999,-1.917999c-0.505005,-0.63501 -0.917999,-1.292007 -0.917999,-1.460007c0,-0.265991 -3.558014,-7.537003 -4.301025,-8.789001c-0.149994,-0.252991 -0.658997,-1.284988 -1.132996,-2.294998c-1.082977,-2.311996 -3.392975,-6.584 -3.886993,-7.190002c-0.204987,-0.251999 -1.035004,-1.697998 -1.843994,-3.21199c-1.528992,-2.865005 -2.544006,-4.744003 -4.378998,-8.108002c-1.183014,-2.169998 -3.391998,-5.837006 -5.252991,-8.719009c-2.15802,-3.343994 -4.505005,-7.332993 -4.728027,-8.038986c-0.120972,-0.383011 -1.832001,-2.586014 -3.800995,-4.895004c-1.969986,-2.309006 -3.983994,-4.75 -4.475998,-5.423004c-1.750992,-2.393005 -13.959,-14.059998 -16.410995,-15.682999c-1.630005,-1.078995 -2.582001,-1.772003 -3.326996,-2.423004c-0.887009,-0.774002 -3.012009,-2.238998 -3.248001,-2.238998c-0.089005,0 -0.343002,-0.171997 -0.565002,-0.382996c-0.220993,-0.210007 -0.770996,-0.649002 -1.220993,-0.975006c-2.01001,-1.455994 -3.844009,-3.830994 -5.460999,-7.068993c-0.59201,-1.186005 -1.811005,-3.138 -2.710007,-4.339005c-0.897995,-1.199997 -2.666,-3.656998 -3.927994,-5.458c-2.895004,-4.132996 -9.156006,-10.387001 -13.462006,-13.446999c-0.925003,-0.656998 -2.662994,-2.027 -3.861008,-3.042503c-1.196991,-1.0158 -3.307999,-2.741898 -4.688995,-3.835594c-1.380997,-1.093803 -3.175995,-2.539406 -3.987991,-3.212502c-0.813004,-0.673004 -2.764999,-2.274399 -4.337006,-3.558403c-4.300995,-3.513298 -5.369995,-4.738396 -5.567993,-6.384796c-0.317001,-2.640602 -1.402008,-9.9702 -2.015015,-13.614502c-0.697998,-4.153 -1.488998,-6.2299 -5.298996,-13.9137c-3.309998,-6.675098 -3.843994,-7.2286 -13.507996,-14.009399c-1.815994,-1.2742 -3.602997,-2.211502 -8.591995,-4.5089c-4.613998,-2.124302 -5.367004,-2.346001 -8.414001,-2.477699c-7.395004,-0.319702 -10.215012,-0.308102 -13.766998,0.0569c-4.673004,0.480099 -11.64901,1.941799 -13.309006,2.788399c-0.673004,0.343399 -2.119003,0.934299 -3.211998,1.313301c-2.811005,0.973598 -8.584,3.741898 -10.317001,4.946499c-1.725998,1.2001 -3.092201,2.357201 -6.204399,5.253498c-1.262001,1.1744 -2.673203,2.415501 -3.135902,2.757801c-1.175797,0.869801 -1.054398,1.4632 0.527199,2.578102c0.7528,0.530499 1.862801,1.6525 2.466904,2.493298c1.878098,2.614101 5.827194,3.936501 10.532196,3.5261c2.817001,-0.2458 3.409004,0.141201 1.973,1.290302c-0.489998,0.391998 -1.016998,0.713398 -1.171997,0.714199c-0.431,0.002098 -1.401001,0.9659 -1.401001,1.3909c0,0.853901 2.604004,4.183998 4.691002,5.998901c3.615997,3.144096 4.227997,3.610695 6.419998,4.899002c2.662003,1.564194 3.899002,1.9618 7.897003,2.539894c5.621994,0.812805 6.382996,0.723206 13.268997,-1.561401c6.350998,-2.107094 7.669998,-2.330399 8.367004,-1.416794c0.528992,0.693398 0.274002,5.838997 -0.421005,8.4963c-1.304993,4.985298 -1.632004,14.293594 -0.602005,17.109001c0.303009,0.828194 1.400009,2.618797 2.438004,3.978798c3.382004,4.431999 7.790009,11.101997 8.542999,12.924995c0.404999,0.981003 1.003998,2.540001 1.333008,3.465004c1.862,5.253998 1.656998,4.422997 2.519989,10.202995c0.406006,2.71701 0.202011,6.658997 -0.500992,9.684006c-0.428009,1.841003 -2.009995,5.095993 -4.238007,8.720993c-2.173996,3.537003 -6.830002,7.078003 -13.709991,10.42601c-2.917007,1.418991 -2.964005,1.473999 -2.964005,3.388992c0,1.725998 0.630997,3.350006 2.022995,5.208008c0.402008,0.534988 0.730011,1.098999 0.730011,1.252991c0,0.153 0.684998,1.091003 1.520996,2.085007c3.483994,4.138 4.418991,4.839005 11.141998,8.358994c3.787003,1.983002 5.033997,2.859009 7.529999,5.290009c4.988007,4.860001 9.121994,11.207001 10.916,16.763992c0.953995,2.953003 1.065002,3.70401 1.371994,9.328003c0.254013,4.660004 0.246002,6.481995 -0.030991,7.649002c-0.451996,1.899002 -0.759003,3.399002 -1.537003,7.498001c-0.623993,3.289001 -2.639999,9.878998 -3.701996,12.104996c-0.326004,0.684006 -0.593002,1.339005 -0.593002,1.455002c0,0.115997 -0.916,2.171005 -2.035004,4.567001c-1.983002,4.244003 -5.817993,11.130997 -8.852997,15.898987c-4.149994,6.519012 -4.994003,7.980011 -6.322006,10.947998c-1.485001,3.318024 -1.934998,4.560028 -2.884995,7.955017c-0.475006,1.695007 -0.555008,3.161011 -0.544998,9.942993c0.011002,8.052002 0.291992,11.667999 1.410995,18.203003c0.988998,5.776001 1.781998,7.889008 4.98201,13.279999c2.702988,4.554016 4.490997,6.471008 7.821991,8.38501c1.430008,0.820984 3.425995,2.001984 4.436005,2.623993c1.009995,0.621002 2.145004,1.208008 2.524002,1.303009c0.905991,0.229004 2.110001,-0.087006 2.30899,-0.607025c0.087997,-0.22699 -0.297989,-2.052979 -0.858002,-4.056c-2.015991,-7.222992 -2.095993,-13.093994 -0.273987,-20.315979c1.171997,-4.649017 2.382996,-7.58902 6.366989,-15.451019c4.327011,-8.540985 4.415009,-8.696991 5.80101,-10.323975c0.610001,-0.716003 1.108994,-1.416016 1.110001,-1.555023c0.001999,-0.444977 3.50499,-4.561981 6.959,-8.177979c7.306992,-7.652008 9.196991,-10.26001 11.975998,-16.532013c1.804993,-4.070999 2.949997,-8.556 3.390991,-13.279999c0.686005,-7.348999 0.313004,-10.904999 -1.972992,-18.815002c-0.608002,-2.104004 -1.383011,-5.190002 -1.722,-6.858002c-0.337997,-1.667999 -0.819,-3.425995 -1.067001,-3.905991c-0.408997,-0.792007 -0.403,-0.891998 0.070999,-1.074005c0.384995,-0.147003 1.042999,0.360001 2.485992,1.917999c2.494003,2.690994 4.74501,6.537994 6.354004,10.856003c1.820007,4.884003 1.736008,4.334 1.539001,10.078003c-0.100998,2.944 -0.313004,6.246994 -0.470993,7.339996c-0.158005,1.091995 -0.202011,2.330994 -0.096008,2.753006c0.104996,0.421997 0.938995,1.694992 1.852997,2.827988c2.144012,2.657013 2.708008,3.794006 3.452011,6.965012c0.335999,1.429993 0.814987,3.426987 1.065994,4.435989c0.25,1.01001 0.509003,2.731018 0.574997,3.825012c0.238998,3.957001 2.44101,13.617004 3.449997,15.134979c0.221008,0.332001 0.401001,0.900024 0.401001,1.263c0,0.653015 0.886002,2.861023 2.315002,5.766022c0.408997,0.832001 0.744003,1.766998 0.744003,2.078003c0,0.310974 0.291992,0.868988 0.649002,1.23999c0.356003,0.372009 1.334991,2.121002 2.175003,3.888c0.839996,1.766998 1.653992,3.26001 1.80899,3.317993c0.156006,0.058014 0.709,0.953003 1.230011,1.989014c0.520996,1.03598 1.03299,1.951996 1.138992,2.03598c0.462006,0.368011 1.858994,2.457001 2.914993,4.357025c0.631012,1.133972 1.262009,2.132996 1.402008,2.219971c0.139999,0.086029 0.541,0.749023 0.891006,1.472015c0.575989,1.190002 1.153992,1.958984 4.388992,5.838013c0.546005,0.654999 1.063004,1.343994 1.147995,1.529999c0.085007,0.185974 0.786011,1.302979 1.556,2.480988c0.771011,1.177002 1.5,2.347992 1.619003,2.600006c0.119995,0.252991 0.548004,1.009979 0.951004,1.682983c0.403992,0.673004 1.293991,2.325012 1.977997,3.671021c0.684006,1.345978 1.802994,3.467987 2.486008,4.714996c1.727997,3.152008 2.69899,7.144989 2.424988,9.970001c-0.200989,2.074982 -0.753998,4.268005 -1.235001,4.895996c-0.127991,0.167999 -0.605988,1.199982 -1.060989,2.294006c-0.45401,1.093994 -1.156998,2.427002 -1.561005,2.962982c-0.404007,0.535004 -0.735001,1.109009 -0.735001,1.274994c0,0.165009 -0.162003,0.355011 -0.360992,0.421021c-0.759003,0.252991 0.104996,1.18399 1.804001,1.944c2.519989,1.126007 7.784988,1.589996 11.740005,1.03299l0,0.001007zm-140.713013,-283.422005c-3.239998,-1.458397 -4.725998,-2.819595 -5.965004,-5.463295c-1.937996,-4.137802 -2.197998,-7.483303 -0.778999,-10.008205c0.825005,-1.468098 2.109001,-2.037598 5.209,-2.309998c3.383003,-0.297401 6.157005,0.809299 7.43,2.965698c0.509003,0.860401 0.513,0.971001 0.055,1.429199c-0.459,0.458202 -0.646996,0.420502 -2.431999,-0.486599c-1.119995,-0.568901 -2.743996,-1.0937 -3.853996,-1.245399c-1.752998,-0.239799 -1.987999,-0.2029 -2.738998,0.428799c-0.784004,0.6595 -1.25,1.9361 -1.727005,4.728203c-0.226997,1.3288 0.518005,3.639599 1.749001,5.429195c1.626999,2.3657 5.845001,4.145905 8.395004,3.543106c0.954994,-0.2257 1.327995,-0.535706 1.907997,-1.5867c0.602005,-1.091599 0.852997,-1.290703 1.529007,-1.212402c1.770996,0.205002 0.83699,3.697197 -1.179001,4.4104c-0.589005,0.208397 -2.035004,0.381096 -3.213005,0.383797c-1.773003,0.004005 -2.528,-0.169197 -4.387001,-1.005798l0,0l0,0zm-1.993004,-5.821701c-0.716995,-0.664894 -0.809998,-0.979397 -0.809998,-2.763298c0,-2.0107 0.613998,-4.135101 1.194,-4.135101c0.251999,0 1.746002,0.563103 2.118004,0.798401c0.054001,0.034401 -0.122002,0.489601 -0.392006,1.0116c-0.361,0.698601 -0.407997,1.1035 -0.176994,1.534401c0.480995,0.9002 1.848,1.856701 2.653,1.856701c0.998001,0 0.952995,0.998802 -0.083,1.8134c-1.185005,0.931999 -3.435005,0.874001 -4.503006,-0.116203l0,0.000099zm36.256996,189.900703c3.769012,-6.550995 5.248001,-9.682007 7.869003,-16.662003c1.57901,-4.203995 3.707001,-12.056992 4.313004,-15.914001c0.177994,-1.132004 0.350998,-4.57399 0.384003,-7.649002c0.050995,-4.639999 -0.055008,-6.22699 -0.619995,-9.332001c-2.07901,-11.429001 -6.747009,-17.877991 -16.560013,-22.882996c-2.889999,-1.473999 -3.932999,-2.210999 -6.018997,-4.253006c-4.904999,-4.800995 -8.162003,-10.697998 -8.207993,-14.860992c-0.033005,-2.966003 0.899994,-4.626007 3.649002,-6.494003c1.177994,-0.800003 2.29599,-1.457001 2.483994,-1.457993c0.604996,-0.005005 5.423004,-3.358002 6.953995,-4.840012c3.147003,-3.044998 6.195999,-8.603989 7.134003,-13.003998c0.503998,-2.362991 0.417007,-7.519989 -0.154999,-9.235001c-0.167999,-0.504997 -0.817001,-2.569992 -1.440994,-4.588997c-1.404999,-4.545998 -2.447998,-6.654999 -4.844009,-9.790001c-1.028992,-1.345993 -1.959,-2.516998 -2.065994,-2.600998c-0.106995,-0.084 -1.074997,-1.605995 -2.152008,-3.382996c-3.917999,-6.468002 -4.899994,-10.440704 -4.258987,-17.225403c0.341995,-3.621803 1.29599,-10.066002 1.873001,-12.649902c0.383987,-1.717995 0.125992,-2.331398 -0.894012,-2.130997c-1.858994,0.365196 -5.855988,1.394302 -7.987991,2.056396c-1.990005,0.618301 -2.923004,0.712402 -7.036003,0.708801c-4.743996,-0.003998 -6.678001,-0.312798 -9.332001,-1.490097c-0.503998,-0.2239 -1.536995,-0.674004 -2.293999,-1.000198c-3.209,-1.382202 -9.608002,-7.305702 -11.113998,-10.288605c-0.474998,-0.941696 -0.894005,-1.712296 -0.929001,-1.712296c-0.036003,0 -1.175003,0.461395 -2.531998,1.025093c-3.811905,1.583504 -6.468002,3.505302 -7.463402,5.399803c-0.309402,0.588898 -1.122101,1.673302 -1.805901,2.409698c-1.405304,1.513405 -1.4739,1.800903 -0.674698,2.8265c0.312798,0.401299 0.807098,1.194305 1.098495,1.762299c0.291405,0.567902 1.139999,1.781807 1.885902,2.697502c0.745903,0.915703 1.987099,2.622604 2.758202,3.793198c0.771095,1.170502 2.230698,2.847801 3.243401,3.727303c1.013,0.879501 2.979996,3.044701 4.369995,4.811501c1.390999,1.7668 2.905998,3.556602 3.366005,3.977303c1.066994,0.976097 3.948997,4.561096 4.727997,5.881096c0.592003,1.004005 0.592003,1.054001 -0.037003,6.973c-0.348,3.278999 -0.679001,8.170006 -0.736,10.870003c-0.056,2.698997 -0.247993,5.290001 -0.424995,5.755997c-0.177002,0.467003 -0.321999,2.703003 -0.321999,4.970001c0,3.257004 0.157997,4.841003 0.756996,7.552002c1.75,7.929001 2.563004,15.391998 1.990997,18.268997c-0.594994,2.988998 -0.782997,9.485001 -0.425995,14.684998c0.472,6.863998 1.699997,12.598999 4.552002,21.263c0.553993,1.682999 1.373993,4.299011 1.820999,5.813004c0.447998,1.514999 1.167999,3.511002 1.600998,4.436005c1.235001,2.641998 1.529999,3.306992 3.004997,6.774002c0.761002,1.791 1.384003,3.362991 1.384003,3.494995c0,0.130997 0.196999,0.455994 0.437996,0.722c0.241005,0.266006 0.873001,1.569992 1.404007,2.897995c0.910995,2.274002 1.85199,4.347 2.445999,5.386002c0.145004,0.251999 0.649994,1.216003 1.123001,2.141998c0.473999,0.925003 1.099991,1.947006 1.39299,2.272003c0.292007,0.324005 0.613007,0.843994 0.712006,1.156006c0.098999,0.311996 0.651001,1.281998 1.227005,2.156998c0.575989,0.875 1.046997,1.755005 1.046997,1.955994c0,0.202011 0.466995,0.977997 1.037003,1.725006c0.569992,0.746994 1.134003,1.664993 1.253998,2.041c0.119003,0.375 0.602005,1.253998 1.072998,1.953003c0.470993,0.699997 1.421997,2.345993 2.112,3.65799c0.690994,1.313004 1.768005,3.172012 2.393005,4.131012c0.625992,0.959 1.278992,1.96199 1.452988,2.227997c1.817001,2.791992 2.721008,3.985992 3.610001,4.766998c0.578003,0.507004 1.139008,1.253998 1.248001,1.658997c0.109009,0.406006 0.680008,1.270004 1.269012,1.919006c0.589996,0.649994 1.071991,1.303986 1.071991,1.453003c0,0.149994 0.244003,0.27298 0.542007,0.27298c0.36499,0 1.104996,-0.977997 2.258987,-2.983994l0,0.001007zm-65.851891,-182.1138c0.126198,0 0.659996,-0.6539 1.186195,-1.453201c0.526199,-0.799202 1.673599,-2.210403 2.549706,-3.135902l1.592896,-1.682701l-4.410301,-0.206497c-3.042297,-0.142403 -5.122101,-0.408401 -6.704895,-0.857399c-3.822701,-1.084396 -5.729401,-1.290703 -10.096199,-1.092102c-5.186005,0.235802 -13.101704,1.653503 -12.716103,2.277504c0.083099,0.134499 1.3283,0.266495 2.766998,0.293396c1.438805,0.026901 3.130104,0.125 3.758499,0.218102c0.628403,0.093102 1.968605,0.294197 2.978203,0.447098c1.009697,0.152802 2.661797,0.362106 3.671402,0.465103c1.580597,0.161301 5.217094,0.830399 9.025299,1.6605c1.911095,0.416496 3.910896,1.471397 4.627701,2.440903c0.4011,0.542595 0.880394,0.878799 1.120995,0.786499c0.231102,-0.088699 0.523506,-0.161301 0.649605,-0.161301zm-27.813702,-8.566399c0.3643,0 1.743599,-0.276104 3.065296,-0.613503c2.528404,-0.645599 8.568703,-1.3498 11.1604,-1.301102c1.591499,0.029903 3.820206,0.479504 7.916504,1.597202c5.754898,1.570202 18.547401,0.511898 18.547401,-1.534401c0,-0.390099 -0.278999,-0.643101 -0.841003,-0.761799c-1.817001,-0.3839 -4.498596,-1.886402 -5.997902,-3.3606c-0.865799,-0.851402 -2.262596,-2.0177 -3.103996,-2.5919c-1.352898,-0.923203 -1.807198,-1.058201 -3.929604,-1.167702c-2.341995,-0.1208 -7.500099,0.4562 -12.132401,1.357399c-3.399498,0.661301 -7.446594,1.660301 -7.798698,1.925102c-0.169899,0.127701 -1.272598,0.6292 -2.4505,1.114399c-2.347797,0.967102 -5.237099,2.5588 -6.843998,3.770401c-1.003799,0.756798 -2.487301,2.777401 -2.487301,3.3876c0,0.167 0.952602,-0.1744 2.116802,-0.758698c1.164299,-0.584305 2.414799,-1.062401 2.778999,-1.062401l0,0z" fill="#000000" id="path2459"/>
  </g>
 </g>
</svg>