<?xml version="1.0" encoding="utf-8"?>
<!-- Generator: Adobe Illustrator 24.1.2, SVG Export Plug-In . SVG Version: 6.00 Build 0)  -->
<!DOCTYPE svg PUBLIC "-//W3C//DTD SVG 1.1//EN" "http://www.w3.org/Graphics/SVG/1.1/DTD/svg11.dtd">
<svg version="1.1" id="Layer_1" xmlns="http://www.w3.org/2000/svg" xmlns:xlink="http://www.w3.org/1999/xlink" x="0px" y="0px"
	 viewBox="31 32 722.6 722.1" enable-background="new 31 32 722.6 722.1" xml:space="preserve">
<g id="design-freepik">
	<path d="M437.028,250.868c2.256-1.231,3.552-3.133,3.985-5.663c0.448-2.613-0.4-5.267-1.091-7.772
		c-0.726-2.631-1.55-5.298-2.475-7.868c-0.758-2.106-1.612-4.043-1.938-6.282c-0.068-0.467-0.802-0.34-0.805,0.109
		c-0.015,1.901,0.593,3.798,0.921,5.66c0.438,2.481,1.377,4.852,1.837,7.337c0.43,2.319,0.57,4.526,0.217,6.862
		c-0.223,1.472-0.483,3.132-1.433,4.341c-0.918-0.886-1.71-1.902-2.191-3.097c-0.669-1.663-0.854-3.564-0.857-5.34
		c-0.001-0.461-0.727-0.587-0.825-0.112c-0.424,2.061-0.664,4.057-0.197,6.137c0.475,2.114,1.605,3.876,3.06,5.456
		C435.687,251.127,436.467,251.173,437.028,250.868z"/>
	<path d="M450.294,270.569c0.19-0.399,0.527-0.582,0.911-0.688c0.724-0.2,1.428-0.379,2.172-0.495
		c0.094-0.015,0.115-0.02,0.116-0.021c0.024-0.001,0.07-0.005,0.163-0.013c0.076-0.007,0.153-0.012,0.229-0.019
		c-0.107,0.426-0.112,0.907-0.092,1.342c0.078,1.667,0.455,3.618,1.808,4.749c0.801,0.669,1.787,1.064,2.847,0.973
		c1.26-0.108,2.586-0.61,3.498-1.506c0.26-0.255,0.484-0.546,0.666-0.861c0.02,0.038,0.044,0.072,0.063,0.11
		c0.438,0.835,0.462,2.111,1.316,2.639c0.411,0.254,1.06,0.109,1.284-0.337c0.419-0.834-0.059-1.817-0.331-2.643
		c-0.273-0.831-0.502-1.663-0.807-2.487c-0.696-1.88-1.848-3.836-3.692-4.785c-2.778-1.428-6.506-1.075-9.293,0.154
		c-1.314,0.58-2.773,1.82-2.611,3.414C448.625,270.92,449.851,271.501,450.294,270.569z M459.502,271.302
		c0.002,0.002,0.003,0.005,0.005,0.008c0,0.001,0,0.001,0,0.002C459.505,271.308,459.504,271.305,459.502,271.302z M459.508,271.249
		c-0.002-0.002-0.002-0.004-0.004-0.006c0.001-0.013,0.001-0.026,0.005-0.032C459.505,271.217,459.509,271.236,459.508,271.249z
		 M459.479,271.249c0.003,0.005,0.008,0.016,0.017,0.04C459.488,271.269,459.48,271.253,459.479,271.249
		C459.479,271.248,459.479,271.249,459.479,271.249z M459.505,271.271c0.001,0.001,0.002,0.002,0.003,0.003
		c0.001,0.012-0.002,0.02-0.001,0.033C459.506,271.294,459.505,271.283,459.505,271.271z M457.616,270.783
		c0.019,0.115,0.031,0.192,0.038,0.245c0,0.056-0.01,0.11-0.018,0.164C457.642,271.059,457.639,270.923,457.616,270.783z
		 M454.808,271.396c0.034,0.087,0.068,0.175,0.109,0.26C454.828,271.443,454.795,271.365,454.808,271.396z M457.701,272.136
		c-0.028-0.071-0.057-0.146-0.069-0.18c-0.034-0.095-0.054-0.194-0.083-0.291c0.013-0.034,0.014-0.073,0.024-0.109
		c0.042-0.049,0.069-0.101,0.099-0.155c-0.003,0.002-0.007,0.003-0.011,0.005c0.006-0.006,0.012-0.012,0.018-0.018
		c0.001-0.001,0.002-0.003,0.003-0.005c0.002-0.002,0.004-0.003,0.007-0.005c0.011-0.012,0.023-0.023,0.035-0.035
		c0.074-0.073,0.11-0.073,0.092-0.043c0.016-0.009,0.032-0.017,0.048-0.025c-0.075,0.032,0.032-0.041,0.124-0.074
		c0.015-0.006,0.031-0.01,0.046-0.015c0.025-0.013,0.051-0.026,0.075-0.04c-0.027,0.015-0.045,0.025-0.067,0.037
		c0.064-0.022,0.127-0.044,0.192-0.063c0.135-0.04,0.272-0.067,0.41-0.095c0.054-0.003,0.108-0.008,0.163-0.009
		c0.134-0.003,0.266,0.01,0.399,0.018c0,0,0,0,0,0c-0.447-0.018-0.122,0.001,0.074,0.044c0.023,0.014,0.046,0.027,0.07,0.041
		c0.034,0.034,0.069,0.068,0.103,0.102c0.016,0.025,0.032,0.05,0.048,0.076c0.004,0.01,0.007,0.023,0.011,0.035
		c0.005,0.035,0.012,0.072,0.012,0.094c0.002,0.093-0.007,0.186-0.01,0.279c-0.018,0.081-0.028,0.163-0.054,0.242
		c-0.013,0.039-0.026,0.077-0.04,0.115c-0.023,0.043-0.046,0.085-0.071,0.127c0.014-0.014,0.024-0.024,0.041-0.041
		c-0.001,0.002-0.001,0.004-0.002,0.006c-0.016,0.018-0.033,0.034-0.049,0.053c-0.007,0.011-0.012,0.023-0.019,0.035
		c-0.003,0.004-0.006,0.006-0.009,0.011c-0.01,0.006-0.021,0.012-0.031,0.018c-0.001,0.001-0.003,0.003-0.004,0.004
		c-0.032,0.031-0.051,0.051-0.066,0.067c0.005-0.011,0.01-0.022,0.038-0.053c-0.108,0.066-0.214,0.135-0.328,0.193
		c-0.044,0.022-0.088,0.043-0.132,0.064c-0.155,0.054-0.311,0.1-0.469,0.138c-0.085,0.005-0.17,0.005-0.254,0.001
		c-0.041-0.038-0.082-0.076-0.121-0.117c-0.06-0.093-0.118-0.187-0.17-0.285C457.756,272.255,457.728,272.195,457.701,272.136z
		 M459.512,271.339c0.005,0.017,0.011,0.03,0.015,0.05C459.578,271.628,459.532,271.474,459.512,271.339z M459.426,272.11
		C459.426,272.11,459.426,272.11,459.426,272.11c0.003-0.003,0.003-0.003,0.005-0.005
		C459.429,272.106,459.428,272.108,459.426,272.11z M459.508,271.312c0-0.001,0-0.002,0-0.003c0.003,0.004,0.005,0.009,0.008,0.013
		c0.036,0.064,0.065,0.131,0.1,0.195C459.562,271.421,459.529,271.356,459.508,271.312z"/>
	<path d="M454.122,265.151c0.579-0.372,1.09-0.633,1.764-0.785c0.63-0.142,1.305-0.185,1.951-0.236
		c1.327-0.107,2.655-0.018,3.715,0.608c0.147,0.087,0.29,0.18,0.427,0.282c-0.162-0.121,0.229,0.2,0.267,0.235
		c0.105,0.097,0.206,0.199,0.303,0.305c0.065,0.07,0.127,0.142,0.188,0.216c-0.075-0.104-0.062-0.087,0.038,0.051
		c0.198,0.275,0.371,0.568,0.524,0.871c0.199,0.392,0.179,0.374,0.333,0.818c0.239,0.686,0.47,1.374,0.671,2.072
		c0.204,0.711,0.313,1.469,0.828,2.035c0.239,0.263,0.688,0.242,0.929,0c0.525-0.526,0.585-1.221,0.657-1.921
		c0.077-0.745,0.033-1.493-0.103-2.229c-0.259-1.404-0.994-2.774-1.943-3.833c-1.951-2.175-5.228-2.471-7.867-1.523
		c-1.184,0.426-2.669,1.481-3.055,2.749C453.687,265.072,453.937,265.27,454.122,265.151z"/>
	<path d="M458.033,271.187c-0.057,0.029-0.113,0.06-0.17,0.09c0.028-0.012,0.085-0.041,0.178-0.092
		C458.038,271.185,458.035,271.186,458.033,271.187z"/>
	<path d="M457.744,271.338c-0.016,0.01-0.037,0.026-0.057,0.041c-0.003,0.003-0.006,0.006-0.009,0.009
		c-0.002,0.004-0.005,0.009-0.007,0.013c0.077-0.039,0.131-0.078,0.144-0.1C457.792,271.314,457.767,271.325,457.744,271.338z"/>
	<path d="M459.278,272.27c0.02-0.02,0.04-0.042,0.059-0.063c0.003-0.006,0.006-0.012,0.01-0.018c-0.035,0.035-0.081,0.077-0.101,0.1
		C459.257,272.282,459.267,272.276,459.278,272.27z"/>
	<path d="M490.167,304.282c0.209,0.461,0.454,0.841,0.854,1.156c0.355,0.281,0.87,0.029,0.769-0.448
		c-0.137-0.646-0.218-1.254-0.187-1.899c0.08-0.08,0.17-0.158,0.225-0.249c0.101-0.167,0.166-0.365,0.26-0.538
		c0.101-0.186,0.18-0.316,0.282-0.44c0.179-0.081,0.335-0.189,0.487-0.304c-0.003,0.004-0.007,0.01-0.009,0.014
		c-0.112,0.187-0.214,0.33-0.265,0.575c-0.067,0.324-0.092,0.652-0.099,0.981c-0.008,0.351-0.015,0.702-0.014,1.053
		c0.002,0.887,0.065,1.779,0.238,2.651c0.341,1.73,1.596,3.587,3.432,3.835c-0.513,0.881-1.257,1.534-2.37,1.22
		c-0.673-0.19-1.023,0.732-0.463,1.098c1.398,0.915,2.923,0.042,3.825-1.129c0.956-1.242,1.695-2.887,1.826-4.456
		c0.088-1.051-0.105-2.154-0.391-3.158c-0.297-1.04-0.901-1.975-1.347-2.954c-0.039-0.085-0.077-0.17-0.114-0.256
		c-0.004-0.012-0.01-0.031-0.022-0.062c-0.089-0.245-0.182-0.488-0.285-0.727c-0.186-0.431-0.409-0.849-0.679-1.234
		c-0.659-0.943-1.516-1.629-2.702-1.713c-1.381-0.098-2.714,0.927-3.305,2.107c-0.153,0.304-0.144,0.498-0.209,0.763
		c-0.014-0.001-0.137,0.293-0.142,0.308c-0.094,0.284-0.144,0.574-0.185,0.869c-0.084,0.602-0.045,1.082,0.218,1.562
		C489.946,303.363,489.961,303.828,490.167,304.282z M496.628,306.587c-0.009-0.025-0.018-0.049-0.026-0.074
		c-0.01-0.03-0.015-0.061-0.024-0.092c0.052,0.107,0.1,0.215,0.139,0.325C496.687,306.693,496.656,306.64,496.628,306.587z"/>
	<path d="M493.316,295.685c-0.01-0.001-0.019-0.003-0.029-0.005C493.285,295.68,493.293,295.681,493.316,295.685z"/>
	<path d="M491.853,295.463c0.12,0.002,0.239,0.005,0.359,0.012c0.08,0.004,0.343,0.063,0.138-0.003
		c0.235,0.076,0.439,0.128,0.663,0.161c0.092,0.013,0.183,0.032,0.275,0.047c0.011,0,0.254,0.032,0.345,0.044
		c0.196,0.028,0.389,0.077,0.584,0.112c0.37,0.068,0.725,0.153,1.077,0.287c0.047,0.021,0.113,0.049,0.129,0.056
		c0.088,0.041,0.175,0.08,0.261,0.125c0.172,0.088,0.339,0.187,0.5,0.293c0.06,0.04,0.117,0.082,0.176,0.123
		c0.021,0.016,0.084,0.063,0.127,0.099c0.153,0.129,0.311,0.253,0.463,0.384c0.312,0.269,0.606,0.558,0.88,0.865
		c0.059,0.067,0.058,0.061,0.052,0.051c0.006,0.009,0.018,0.027,0.049,0.07c0.063,0.088,0.124,0.178,0.183,0.268
		c0.111,0.168,0.217,0.339,0.319,0.513c0.239,0.408,0.487,0.799,0.75,1.193c0.531,0.798,1.717,0.293,1.527-0.644
		c-0.211-1.042-0.717-1.93-1.26-2.833c-0.547-0.907-1.226-1.663-2.13-2.225c-0.843-0.524-1.904-0.866-2.906-0.826
		c-0.558,0.022-1.105,0.181-1.607,0.416c-0.292,0.137-0.483,0.281-0.69,0.529c0.147-0.175-0.092,0.059-0.125,0.084
		c-0.119,0.092-0.236,0.187-0.35,0.285C491.434,295.126,491.608,295.458,491.853,295.463z"/>
	<path d="M372.279,421.895c-3.617-2.353-7.017-4.244-10.133-7.342c-2.789-2.772-6.557-7.012-7.344-10.979
		c-0.16-0.806-1.251-0.52-1.328,0.18c-0.594,5.438,1.318,9.586,4.522,14.002c2.923,4.03,6.873,8.598,11.65,10.385
		C373.422,429.553,375.379,423.911,372.279,421.895z"/>
	<path d="M502.553,610.453c-0.002,0.323,0.074,0.652,0.253,0.962c0.092,0.16,0.184,0.32,0.276,0.479
		c1.192,2.068,4.803,0.698,3.958-1.669c-1.58-4.427-3.29-8.277-6.022-12.113c-0.522-0.733-1.888-0.779-2.102,0.275
		c-0.403,1.982,0.46,3.681,1.278,5.448C501.178,605.961,501.809,608.233,502.553,610.453z"/>
	<path d="M398.72,567.905c-0.259,0.429,0.066,1.146,0.622,1.083c3.169-0.358,6.171-2.886,8.068-5.327
		c0.994-1.279,1.832-2.669,2.728-4.017c0.831-1.249,2.139-2.416,2.756-3.755c0.569-1.234-0.375-2.835-1.852-2.409
		c-2.552,0.735-3.997,4.233-5.326,6.299c-0.932,1.449-1.946,2.778-3.141,4.024C401.295,565.138,399.677,566.32,398.72,567.905z"/>
	<path d="M399.393,286.401c0.624-1.208,1.173-2.456,1.773-3.652c0.615-1.225,1.28-2.356,1.629-3.698
		c0.313-1.206-1.044-2.344-2.155-1.656c-0.973,0.604-1.817,1.344-2.529,2.238c-0.805,1.01-1.698,1.883-2.448,2.946
		c-1.365,1.935-2.61,3.949-3.686,6.06c-2.211,4.336-4.111,8.832-5.837,13.38c-3.382,8.913-5.921,18.116-8.526,27.277
		c-0.719,2.527-1.443,5.054-2.207,7.568c-0.757,2.491-1.771,5.043-2.266,7.596c-0.233,1.202,1.246,1.825,1.95,0.822
		c1.294-1.846,2.177-4.111,3.105-6.162c0.952-2.104,1.833-4.247,2.671-6.398c1.717-4.403,3.303-8.854,4.875-13.311
		c3.114-8.824,5.976-17.737,10.119-26.153C396.998,290.952,398.213,288.685,399.393,286.401z"/>
	<path d="M271.161,355.276c-2.728,0.066-3.933,2.611-5.069,4.7c-0.963,1.77-1.812,3.591-2.586,5.451
		c-1.479,3.555-2.414,7.195-2.913,11.01c-0.497,3.802-0.616,7.717-0.037,11.517c0.295,1.936,0.484,3.932,1.048,5.808
		c0.662,2.203,1.386,4.368,2.095,6.555c0.225,0.694,1.415,0.624,1.342-0.182c-0.191-2.118-0.267-4.271-0.23-6.399
		c0.034-1.992-0.159-3.978-0.061-5.969c0.17-3.454,0.246-6.884,0.921-10.288c0.64-3.228,1.656-6.53,2.961-9.494
		c0.758-1.722,1.626-3.396,2.569-5.023c1.062-1.832,2.862-3.89,1.985-6.145C272.853,355.962,272.148,355.253,271.161,355.276z"/>
	<path d="M468.294,504.894c-0.288-0.195-0.696-0.539-0.994-0.77c-0.193-0.149-0.295-0.277-0.454-0.418
		c-0.068-0.06-0.108-0.093-0.149-0.126c-0.028-0.043-0.073-0.107-0.151-0.208c-0.553-0.717-2.066-0.885-2.248,0.294
		c-0.446,2.88,2.109,4.618,4.346,5.846c2.228,1.224,4.228-2.287,1.978-3.384c-0.189-0.092-0.377-0.189-0.569-0.277
		c-0.089-0.041-0.799-0.388-0.506-0.233C469.12,505.393,468.694,505.165,468.294,504.894z"/>
	<path d="M277.998,503.046c2.368,0.919,3.673-2.709,1.672-3.966c-1.865-1.172-3.317-2.706-4.614-4.485
		c-1.237-1.698-2.103-3.803-3.705-5.16c-0.165-0.14-0.445-0.228-0.642-0.083c-2.367,1.742-0.476,5.437,0.731,7.356
		C272.99,499.173,275.211,501.965,277.998,503.046z"/>
	<path d="M680.8,437.04c0.089-0.126,0.159-0.273,0.171-0.465c1.987-32.458-3.367-65.469-11.454-96.834
		c-8.68-33.662-21.507-66.712-39.689-96.42c-34.46-56.304-87.894-100.425-149.435-124.179
		c-59.36-22.913-127.513-23.184-189.525-12.344c-30.587,5.347-60.19,14.396-87.76,28.804c-27.858,14.56-53.317,33.705-75.271,56.187
		C85.142,235.512,53.946,293.4,46.056,354.415c-0.99,7.659-1.537,15.162-1.416,22.885c0.01,0.606,1.013,0.799,1.105,0.149
		c4.257-29.919,9.938-58.912,21.412-87.016c11.708-28.677,28.08-55.504,48.014-79.199c39.71-47.202,93.19-81.489,153.24-95.992
		c31.578-7.626,64.214-11.082,96.676-11.188c30.921-0.101,62.307,2.711,92.131,11.201c62.326,17.741,118.359,58.476,156.549,110.547
		c39.579,53.965,60.782,122.563,64.437,189.055c0.356,6.481,0.773,12.953,0.963,19.44c-5.111-7.429-14.352-12.356-24.142-14.56
		c0.279-0.115,0.506-0.365,0.532-0.76c1.99-30.601-4.201-61.665-13.668-90.661c-10.056-30.802-24.487-60.762-43.308-87.184
		c-34.122-47.9-83.973-84.272-139.921-102.365c-26.173-8.464-54.017-11.699-81.427-12.375c-29.504-0.727-59.213,1.663-88.169,7.413
		c-26.917,5.346-52.833,14.077-76.855,27.446c-24.831,13.819-47.338,31.781-66.731,52.525
		c-37.454,40.064-65.706,92.356-72.868,147.183c-0.864,6.617-1.341,13.064-1.238,19.719c-9.338-4.683-20.284-4.84-29.84-0.656
		c-9.27,4.06-18.348,12.718-18.637,23.409c-0.141,5.224,1.49,10.279,4.47,14.344c1.528,3.911,3.885,7.499,6.897,10.39
		c-5.806,14.32,2.233,32.308,14.858,40.169c14.406,8.97,33.259,6.61,46.616-3.017c8.181,11.993,22.292,20.927,37.272,19.05
		c14.127-1.771,26.125-9.94,34.653-21.07c1.957,6.978,8.751,11.353,16.365,11.421c10.484,0.094,18.397-8.387,24.035-16.194
		c0.725-1.004-0.957-2.32-1.73-1.335c-4.801,6.115-11.704,12.094-19.787,12.592c-6.817,0.419-14.721-3.473-16.622-10.498
		c-0.403-1.49-2.276-1.235-2.778,0c-11.668,28.71-53.83,24.74-68.439,0.837c-0.94-1.538-2.864-1.656-4.163-0.536
		c-11.521,9.929-29.109,13.275-42.666,5.482c-12.598-7.241-17.087-21.32-15.375-34.953c0.549,0.42,1.114,0.819,1.695,1.194
		c8.925,5.745,24.459,5.423,31.955-2.781c2.154-2.357-0.539-5.844-3.38-4.38c-4.074,2.098-7.526,4.35-12.231,4.913
		c-4.626,0.554-9.504-0.241-13.724-2.233c-1.378-0.651-2.636-1.425-3.8-2.284c0.145-0.273,0.112-0.631-0.247-0.864
		c-1.939-1.262-3.64-2.871-5.05-4.7c-2.598-3.903-3.992-8.585-4.185-13.487c0.108-1.323,0.349-2.645,0.775-3.944
		c2.802-8.546,10.577-14.819,18.998-17.322c7.98-2.372,16.442-1.355,23.536,3.042c3.576,2.216,6.727,5.196,9.096,8.678
		c2.022,2.972,2.65,6.593,4.967,9.278c1.219,1.413,2.979,0.828,3.893-0.402c1.245,0.17,2.651-0.371,3.254-1.844
		c5.971-14.572,19.418-25.852,35.372-27.353c16.122-1.517,31.932,8.969,33.48,25.43c-0.1,0.11-0.208,0.215-0.306,0.326
		c-0.595,0.679-0.242,1.761,0.424,2.114c0.002,0.2,0.012,0.397,0.01,0.599c-0.018,1.403,1.827,1.463,2.289,0.31
		c0.397-0.993,0.866-1.887,1.39-2.689c8.419-4.695,19.224-3.564,25.468,4.62c1.943,2.547,2.584,7.372,6.398,7.712
		c1.455,0.129,2.952-0.416,4.314-1.289c-0.045,0.525-0.083,1.05-0.14,1.574c-0.046,0.422-0.095,0.843-0.148,1.264
		c-0.006,0.045-0.007,0.06-0.01,0.084c-0.006,0.042-0.01,0.066-0.019,0.122c-0.04,0.26-0.077,0.521-0.118,0.781
		c-0.282,1.79-0.645,3.569-1.111,5.321c-0.208,0.78-0.436,1.555-0.688,2.323c-0.14,0.425-0.287,0.848-0.441,1.269
		c-0.068,0.186-0.138,0.37-0.209,0.555c-0.024,0.063-0.181,0.452-0.235,0.591c-0.043,0.098-0.092,0.213-0.107,0.247
		c-0.08,0.177-0.16,0.354-0.242,0.53c-0.184,0.393-0.375,0.781-0.576,1.166c-0.395,0.757-0.818,1.502-1.276,2.223
		c-0.201,0.317-0.409,0.63-0.624,0.937c-0.055,0.078-0.326,0.44-0.426,0.579c-0.492,0.615-1.009,1.209-1.563,1.769
		c-0.557,0.562-1.146,1.089-1.761,1.586c-0.024,0.019-0.029,0.024-0.044,0.037c-0.033,0.022-0.053,0.036-0.099,0.067
		c-0.156,0.107-0.307,0.22-0.463,0.327c-0.428,0.293-0.869,0.57-1.317,0.833c-0.382,0.224-0.77,0.438-1.164,0.638
		c-0.124,0.063-0.691,0.321-0.771,0.366c-0.704,0.281-1.435,0.503-2.172,0.678c-0.174,0.042-0.614,0.092-0.633,0.102
		c-0.243,0.017-0.485,0.037-0.73,0.033c-0.194-0.003-0.881-0.133-0.616-0.061c-0.208-0.05-0.415-0.099-0.623-0.154
		c-0.125-0.033-0.247-0.078-0.37-0.119c-0.21-0.121-0.432-0.223-0.639-0.352c-0.112-0.07-0.294-0.208-0.38-0.271
		c-0.206-0.178-0.41-0.357-0.6-0.552c-0.191-0.196-0.366-0.404-0.543-0.612c-0.09-0.105-0.182-0.207-0.271-0.313
		c-0.01-0.012-0.013-0.015-0.022-0.026c-0.009-0.014-0.014-0.023-0.033-0.05c-0.384-0.552-0.73-1.112-1.022-1.719
		c-0.153-0.318-0.232-0.504-0.235-0.511c-0.137-0.334-0.261-0.673-0.379-1.014c-0.242-0.703-0.444-1.42-0.637-2.138
		c-0.791-2.946-0.746-5.879-1.144-8.865c-0.186-1.393-0.192-2.622,0.014-4.019c0.143-0.969-1.246-1.419-1.511-0.417
		c-0.371,1.407-0.769,2.797-1.143,4.201c-0.396,1.487-0.503,3.104-0.557,4.643c-0.108,3.069,0.124,6.22,1.028,9.169
		c0.873,2.85,2.209,5.462,4.645,7.266c1.06,0.785,2.256,1.283,3.505,1.562c5.074,2.05,10.835,0.723,15.419-2.337
		c1.679-1.121,3.202-2.416,4.636-3.804c-0.619,1.35-1.322,2.661-2.025,3.969c-0.201,0.35-0.395,0.705-0.601,1.051
		c-3.295,5.526-7.431,11.062-13.013,14.447c-2.555,1.549-5.32,2.54-8.283,2.29c-2.241-0.189-2.445,3.092-0.507,3.745
		c6.829,2.304,13.735,1.329,20.136-1.755c3.542-1.707,6.792-3.902,9.99-6.178c0.98-0.566,1.904-1.203,2.786-1.892
		c-0.316,12.389,6.5,25.682,17.573,31.204c3.769,1.88,7.915,2.806,12.129,2.638c3.066-0.174,3.106-4.919,0-4.803
		c-0.38,0.014-0.756,0.016-1.129,0.009c-1.78-0.063-3.288-0.573-4.862-1.799c-1.665-1.297-3.145-3.251-4.263-5.167
		c-1.063-1.822-1.895-3.751-2.549-5.751c7.045,5.276,17.062,6.697,25.505,4.687c1.008,7.797,2.905,15.246,9.658,20.076
		c5.756,4.117,8.942,11.881,11.425,18.338c2.417,6.283,4.093,12.78,5.729,19.298c0.655,2.61,1.257,5.237,1.857,7.864
		c-0.12-0.065-0.256-0.117-0.41-0.149c-1.318-0.271-2.452,0.376-3.627,0.9c-1.241,0.553-2.485,1.037-3.828,1.276
		c-1.011,0.18-1.785,1.541-1.419,2.499c0.526,1.375,0.573,2.859,0.769,4.311c-2.94,0.679-5.822,1.555-8.736,2.349
		c-1.734,0.472-3.477,0.921-5.235,1.295c-0.963,0.205-1.931,0.391-2.905,0.536c-0.15,0.022-0.288,0.058-0.431,0.088
		c-0.23-0.316-0.688-0.425-1.066-0.099c-0.199,0.171-0.375,0.367-0.542,0.572c-0.087,0.031-0.175,0.06-0.263,0.091
		c0.004-0.034,0.006-0.068,0.006-0.098c-0.001-0.208-0.213-0.388-0.422-0.321c-0.191,0.062-0.242,0.21-0.318,0.384
		c-0.033,0.074-0.029,0.156-0.004,0.229c-0.006,0.027-0.01,0.052-0.016,0.079c-0.561,0.258-0.587,1.037-0.049,1.32
		c-0.024,0.155-0.043,0.31-0.057,0.468c-0.455,1.371-0.629,2.892-0.692,4.165c-0.138,2.75,0.369,5.592,1.171,8.212
		c0.043,0.141,0.097,0.28,0.142,0.421c0.139,0.913,0.293,1.823,0.48,2.724c1.077,5.188,3.376,10.073,7.135,13.862
		c1.848,1.863,3.956,3.424,6.213,4.742c0.179,0.155,0.349,0.318,0.531,0.469c0.394,0.327,0.955,0.59,1.513,0.634
		c0.063,0.032,0.123,0.069,0.186,0.1c1.083,0.538,2.34,0.276,3-0.787c0.468-0.752,0.995-1.44,1.552-2.101
		c1.461-0.932,2.953-1.822,4.428-2.694c1.393-0.824,2.767-1.68,4.15-2.52c1.089-0.661,2.04-1.245,2.88-2.088
		c0.565,1.322,1.481,2.445,2.914,3.147c1.9,0.932,4.079,0.627,6.072,1.24c0.669,0.206,1.226,0.511,1.737,0.86
		c0.392,0.542,0.916,0.999,1.515,1.382c0.307,0.367,0.591,0.756,0.859,1.164c0.008,0.438,0.077,0.887,0.103,1.324
		c0.068,1.139,0.087,2.281,0.163,3.418c0.084,1.256,0.247,2.522,0.44,3.765c0.174,1.123,0.465,2.122,1.255,2.988
		c0.221,0.242,0.485,0.423,0.771,0.551c2.74,3.168,10.498,5.381,12.878,5.799c4.804,0.843,9.852,1.305,14.59-0.126
		c3.963-1.197,10.804-4.069,11.603-8.491c0.045-0.249,0.041-0.528-0.006-0.803c0.507-1.102,0.793-2.288,0.93-3.496
		c0.064-0.563-0.31-1.29-0.693-1.673c-0.254-0.254-0.611-0.458-0.984-0.579c-1.096-1.526-2.559-2.996-3.261-4.177
		c-2.964-4.988-5.964-9.762-9.314-14.535c-2.783-3.965-4.933-8.856-8.476-12.216c-0.661-0.627-1.337-1.195-2.015-1.745
		c2.98-2.843,4.932-7.113,4.408-11.03c-0.469-3.502-0.697-8.431-3.525-11.009c-0.065-0.134-0.127-0.268-0.195-0.401
		c-2.378-4.641-5.761-8.725-7.931-13.478c-1.233-2.7-2.31-5.51-3.458-8.25c-1.34-3.198-2.612-6.416-3.753-9.691
		c-1.208-3.465-2.268-6.988-2.981-10.591c-0.365-1.844-0.608-3.696-0.761-5.569c-0.113-1.394-0.102-2.87-0.298-4.277
		c0.345-1.106,0.821-2.181,1.468-3.2c0.486-0.766,1.037-1.492,1.627-2.192c3.154-2.173,6.07-5.206,8.761-7.731
		c6.707-5.053,14.04-9.418,19.787-15.606c2.713-2.921,5.027-6.337,6.16-10.169c2.192-0.067,4.367-0.191,6.515-0.377
		c12.885-1.111,25.609-3.193,38.302-5.6c0.008-0.001,0.014-0.005,0.021-0.006c0.573,0.224,1.117,0.531,1.623,0.961
		c2.348,1.996,3.305,5.288,5.664,7.347c2.43,2.121,5.553,3.331,8.738,4.469c4.63,3.204,9.462,6.137,13.495,9.241
		c5.455,4.199,13.004,8.494,14.879,15.62c1.019,3.874,1.259,6.831,3.859,9.162c0.01,3.4-0.814,6.787-1.997,9.956
		c-2.091,5.599-5.398,11.313-9.986,15.236c-4.498,3.846-22.171,14.251-19.584,22.678c-0.091,1.508-0.322,2.901-1.496,3.87
		c-5.309,4.385-15.058,3.076-19.322,9.058c-0.452-0.032-0.948,0.424-0.86,0.965c1.473,9.131,6.155,18.083,12.732,24.612
		c2.069,2.054,6.166,6.339,9.416,6.529c3.774,0.221,7.989-5.43,10.117-7.79c5.399-5.985,9.31-12.837,11.481-20.473
		c0.592-0.569,0.873-1.414,0.718-2.268c0.733-0.119,1.441-0.284,2.102-0.513c4.701-1.624,6.385-7.668,7.751-11.968
		c0.609-1.917,0.634-3.919,1.143-5.886c0.679-2.621,1.718-5.226,2.915-7.645c1.979-4,4.595-7.663,7.012-11.401
		c2.196-3.398,4.075-7.028,6.435-10.315c0.83-1.156,1.743-2.222,2.677-3.268c0.072,0.015,0.142,0.031,0.216,0.032
		c0.089,3.584,1.053,7.045,3.175,10.057c1.545,2.193,3.893,3.823,5.268,6.133c1.6,2.688,2.156,6.205,3.027,9.187
		c3.668,12.554,7.833,25.076,8.667,38.226c0.493,7.772-1.883,14.979-1.707,22.623c0.107,4.673,2.132,7.76,6.212,8.058
		c-0.124,7.234-2.904,14.897-5.242,21.567c-0.345,0.983,0.402,1.886,1.259,2.217c6.057,2.334,12.511,4.927,18.982,5.74
		c7.317,0.919,15.275-2.207,21.489-5.905c0.817-0.486,1.024-1.323,0.895-2.198c-1.286-8.704-3.857-18.032-9.318-25.06
		c-0.087-0.112-0.179-0.203-0.272-0.286c0.391-0.694,0.941-1.471,1.191-2.739c0.501-2.542-0.388-5.636-1.354-7.951
		c-1.465-3.509-3.886-6.54-5.666-9.885c-2.069-3.89-3.59-8.083-4.959-12.262c-2.882-8.798-4.651-17.872-7.088-26.788
		c-1.022-3.739-2.511-7.328-3.533-11.064c-1.387-5.069-0.56-9.109,0.559-14.1c1.519-6.772,0.735-12.228-3.531-17.783
		c-1.711-2.228-3.785-4.202-5.135-6.685c0.033-0.126,0.045-0.263,0.013-0.421c-2.9-13.857-5.536-28.151-7.196-42.217
		c-1.253-10.623,0.435-22.642-1.76-33.393c0.176-2.251-0.228-4.599-0.721-6.797c-1.345-5.993-4.345-11.019-7.59-16.145
		c-0.057-0.09-0.117-0.177-0.174-0.267c0.183-0.366,0.22-0.827,0.021-1.373c-4.911-13.439-6.397-27.055-9.229-40.989
		c-1.053-5.181-1.824-10.397-2.765-15.597c-0.404-2.231-0.787-4.515-0.976-6.797c0.093-1.32,0.236-2.635,0.463-3.937
		c0.234-1.342,0.604-2.677,1.013-3.99c2.09,1.301,4.311,2.364,6.582,3.144c8.678,2.979,18.528,0.395,25.763,7.118
		c4.827,4.486,10.138,10.285,16.875,7.903c1.367,1.299,2.959,2.239,5.005,2.681c3.155,0.682,5.569-0.891,8.334-2.206
		c7.305-3.474,8.284-10.219,9.142-17.464c0.815-6.88,0.839-15.311-5.07-20.081c-2.971-2.398-6.566-3.708-8.88-6.773
		c0.988-2.059,1.081-4.483,0.72-6.9c0.014-0.057,0.035-0.108,0.036-0.175c0.014-2.103-0.14-4.242-0.511-6.34
		c0.228-0.16,0.383-0.415,0.348-0.793c-0.567-6.174-2.215-12.21-5.347-17.591c-0.936-1.609-2.006-3.123-3.172-4.557
		c0.277-0.188,0.536-0.446,0.747-0.717c40.858,31.563,68.063,77.721,79.645,127.771c-11.224,3.928-21.17,11.585-26.928,21.945
		c-11.723-7.151-28.319-7.25-38.452,2.821c-5.926,5.89-8.367,14.304-7.197,22.225c-0.145,4.376,0.987,8.784,3.27,12.654
		c1.026,1.739,1.684,2.837,1.473,4.323c-3.864,1.668-5.023,6.854-4.742,10.937c0.402,5.861,3.5,11.445,8.081,15.077
		c9.645,7.649,22.143,4.318,30.567-3.095c1.767,5.803,5.925,11.586,9.232,15.402c6.191,7.143,14.666,12.47,23.871,14.704
		c19.298,4.682,37.797-4.887,46.419-22.101c9.836,7.954,23.146,13.107,35.806,10.635c11.741-2.293,22.078-10.855,25.477-22.469
		C684.169,448.357,683.422,442.189,680.8,437.04z M88.115,397.663c-1.257-2.644-3.178-5.174-4.693-7.093
		c-2.957-3.746-6.689-6.948-10.88-9.26c4.046-26.475,9.125-52.16,19.241-77.101c10.503-25.896,24.95-50.237,42.51-71.968
		c34.844-43.121,81.817-75.898,135.617-90.189c27.552-7.319,56.099-10.94,84.565-11.828c28.159-0.879,56.706,0.818,84.245,7.009
		c55.477,12.471,106.444,45.407,143.211,88.418c40.246,47.082,66.166,109.966,70.671,171.755c0.524,7.185,1.04,14.37,1.219,21.573
		c0.006,0.237,0.093,0.411,0.211,0.547c-5.322-1.095-10.766-1.389-15.766-0.846c-0.761-11.013-2.043-21.615-8.816-30.853
		c-0.7-0.955-1.438-1.872-2.208-2.756c0.225-0.316,0.35-0.716,0.287-1.18c-7.876-58.107-35.075-116.357-76.704-157.933
		c-11.332-11.317-23.787-21.444-37.028-30.442c0.723-1.545,1.172-3.284,1.394-4.927c0.006-0.032,0.021-0.056,0.024-0.09
		c0.011-0.135,0.022-0.271,0.034-0.407c0.045-0.409,0.081-0.813,0.099-1.201c0.055-0.665-0.465-0.973-0.987-0.941
		c-0.112-0.058-0.241-0.1-0.403-0.1c-2.459,0.001-4.559,0.914-6.264,2.731c-0.196,0.209-0.358,0.398-0.509,0.58
		c-31.939-20.101-67.142-32.486-104.647-36.436c-35.887-3.779-72.741-1.851-108.093,5.346
		c-33.359,6.791-64.582,19.813-92.229,39.805c-28.079,20.305-51.816,46.492-69.571,76.234c-9.625,16.122-17.522,33.32-23.25,51.208
		c-5.407,16.885-10.622,36.17-9.557,54.115C94.835,385.947,90.77,391.492,88.115,397.663z M601.758,370.396
		c-13.318-62.337-48.206-119.385-101.14-155.541c0.054-0.549,0.059-1.116,0.032-1.695c2.929-1.344,4.42-3.956,4.319-7.111
		c2.434-0.607,3.599-3.542,4.08-6.06c0.996-0.264,1.851-0.765,2.585-1.428c0.011,0.008,0.019,0.018,0.031,0.026
		c48.984,33.212,83.445,82.809,101.778,138.792c4.749,14.503,8.314,29.376,10.656,44.455c-5.156-4.79-11.418-8.281-18.213-10.383
		C604.528,371.03,603.15,370.68,601.758,370.396z M496.356,236.107c-0.397,1.742-0.859,3.479-1.454,5.167
		c-0.329,0.371-0.537,0.883-0.551,1.413c-0.109,0.242-0.22,0.483-0.354,0.711c-0.036,0.061-0.146,0.223-0.243,0.365
		c-0.1,0.001-0.197,0.019-0.289,0.05c-0.238-0.262-0.477-0.524-0.722-0.779c0.004-0.234-0.001-0.471-0.015-0.714
		c-0.053-0.889-0.137-1.779-0.243-2.663c-0.21-1.767-0.595-3.482-1.151-5.173c-0.023-0.069-0.067-0.123-0.1-0.185
		c0.447-1.054,0.456-2.343,0.993-3.294c0.524-0.927,1.889-1.597,2.589-2.473c0.528-0.661,0.935-1.354,1.253-2.072
		c0.25,0.683,0.484,1.371,0.657,2.074c0.218,0.889,0.259,1.208,0.312,2.211C497.131,232.529,496.751,234.374,496.356,236.107z
		 M477.463,241.431c-2.609-1.273-5.426-2.521-8.257-3.194c-0.732-0.174-1.473-0.309-2.22-0.417c0.393-3.464,2.54-6.292,5.941-7.451
		c1.518-0.517,2.53-0.283,3.648-1.391c1.254-1.244,1.448-3.78,2.136-5.333c1.476-3.331,5.569-6.255,8.934-7.615
		c0.582-0.236,1.134-0.735,1.09-1.432c-0.232-3.672,1.746-6.782,6.115-6.605c0.75,0.03,1.324-0.531,1.56-1.188
		c0.652-1.814,1.126-3.607,2.523-5.032c1.325-1.352,3.338-1.518,4.592-2.925c1.125-1.263,1.093-2.095,2.695-3.329
		c0.086-0.066,1.728-1.105,2.217-1.611c1.719-1.78,2.162-3.725,4.852-4.289c-0.35,2.806-1.642,7.165-4.672,7.92
		c-0.211,0.043-0.424,0.073-0.627,0.067c-0.361-0.011-0.614-0.187-0.948-0.289c-0.191-0.058-0.422,0.038-0.519,0.211
		c-0.313,0.556-0.168,0.969,0.185,1.261c-0.1,2.016-1.14,3.616-3.139,4.791c-0.399-0.04-0.703,0.131-0.914,0.392
		c-0.225,0.063-0.452,0.12-0.68,0.169c-0.531,0.116-1.136,0.045-1.579,0.385c-0.213,0.163-0.302,0.354-0.253,0.621
		c0.182,0.992,1.185,1.29,2.205,1.282c-0.057,0.861-0.273,1.626-0.669,2.281c-0.851,0.274-1.702,0.978-2.407,1.36
		c-0.56,0.303-1.15,0.602-1.763,0.781c-0.606,0.177-0.692,0.135-1.219-0.039c-0.315-0.104-0.645,0.122-0.738,0.419
		c-0.459,1.47,1.071,1.785,2.372,1.709c0.16,1.045,0.097,1.985-0.179,2.811c-0.591,0.041-1.143,0.439-1.635,0.779
		c-2.034,1.408-4.317,1.547-6.674,0.814c-0.394-0.122-0.681,0.328-0.508,0.661c0.947,1.824,2.633,2.911,4.734,2.884
		c0.091,0.79,0.109,1.583,0.01,2.355c-0.635,0.354-1.213,0.774-1.491,0.996c-1.604,1.277-2.736,1.655-4.719,1.811
		c-1.421,0.111-3.306,0.706-4.704,0.4c-0.406-0.089-0.737,0.405-0.418,0.719c1.783,1.755,4.105,2.477,6.583,2.345
		c-0.118,0.467-0.118,0.907-0.296,1.485c-0.139,0.453-0.287,0.866-0.441,1.262c-0.077,0-0.154-0.005-0.233,0.022
		c-1.667,0.565-2.98,1.888-4.721,2.411c-1.596,0.479-4.942,1.077-6.461,0.151c-0.477-0.291-0.865,0.338-0.557,0.722
		c0.936,1.169,1.517,2.054,3.028,2.567c1.287,0.436,2.724,0.402,4.069,0.162c0.104,1.876-0.096,4.031-1.897,5.231
		c-0.008,0.006-0.014,0.012-0.023,0.018C480.106,242.793,478.799,242.083,477.463,241.431z M366.371,309.6
		c-6.028,2.382-12.575,1.255-18.697-0.154c-4.114-0.947-8.139-1.991-12.346-2.45c-1.999-0.218-4.106-0.337-6.184-0.207
		c3.856-1.288,8.029-1.614,12.062-1.641c4.738-0.033,9.465,0.425,14.199,0.543c4.93,0.124,10.048-0.018,14.672-1.914
		c1.844-0.756,3.608-1.785,5.249-3.01C373.079,304.438,370.651,307.909,366.371,309.6z M382.497,289.899
		c-0.11,0.039-0.218,0.098-0.319,0.192c-4.073,3.809-7.527,8.159-12.787,10.434c-4.529,1.959-9.634,1.99-14.478,1.862
		c-9.49-0.252-19.436-1.72-28.434,2.185c-2.151,0.934-4.05,2.197-5.669,3.726c0.788-1.43,1.816-2.753,2.939-4.002
		c1.196-1.33,2.501-2.51,3.88-3.646c0.05-0.041,0.104-0.081,0.154-0.122c3.376-2.221,7.217-3.772,11.098-4.787
		c5.762-1.507,11.81-1.344,17.694-2.091c3.602-0.457,7.194-1.018,10.745-1.778c3.115-0.667,6.234-1.416,9.079-2.889
		c4.356-2.257,8.294-5.357,11.824-8.838C386.195,283.327,384.295,286.588,382.497,289.899z M394.026,271.707
		c-1.066-0.51-2.547-0.432-3.649-0.37c-3.815,0.214-7.359,1.768-10.604,3.696c-3.432,2.039-6.599,4.49-10.035,6.524
		c-3.81,2.255-7.978,3.757-12.452,3.787c-1.323,0.009-2.633-0.104-3.932-0.301c3.765-0.651,7.382-1.779,10.713-3.676
		c3.21-1.828,6.133-4.155,8.913-6.575c5.815-5.062,11.03-10.872,17.315-15.379c3.161-2.266,6.606-4.212,10.431-5.068
		c3.331-0.745,6.767-0.518,10.033,0.379c-4.446,2.843-8.2,6.366-11.604,10.434C397.378,267.283,395.675,269.474,394.026,271.707z
		 M413.648,253.003c-0.029-0.017-0.054-0.038-0.086-0.053c-3.348-1.62-7.016-2.596-10.76-2.245
		c-3.519,0.329-6.853,1.496-9.949,3.177c-6.588,3.579-11.987,9.058-17.398,14.15c-5.018,4.722-10.371,10.038-16.982,12.435
		c-4.035,1.463-8.489,2.257-12.905,2.209c-0.066-0.007-0.133-0.014-0.199-0.021c-3.014-0.328-5.928-0.844-8.759-1.978
		c-3.311-1.325-6.889-3.155-9.623-5.475c-0.771-0.654-1.454-1.383-2.071-2.162c-0.031-0.043-0.065-0.083-0.096-0.126
		c-1.335-1.903-2.307-3.967-3.014-6.122c-0.242-0.874-0.431-1.755-0.586-2.642c1.944,3.512,4.186,6.858,7.525,9.196
		c4.697,3.288,11.125,3.49,16.522,2.102c5.706-1.467,11.442-4.773,14.985-9.552c1.513-2.041,2.646-4.331,3.909-6.527
		c1.609-2.796,3.35-5.429,5.678-7.683c2.175-2.105,4.692-3.777,7.393-5.13c2.452-1.228,5.042-2.097,7.55-3.19
		c1.616-0.705,0.539-2.78-0.796-2.94c-6.47-0.777-13.49,0.159-19.712,1.99c-3.298,0.97-6.743,2.244-9.811,4.054
		c4.404-3.786,9.473-6.824,14.894-8.855c7.898-2.959,16.155-4.345,24.539-4.996c4.85-0.376,9.717-0.473,14.581-0.447
		c2.223-0.052,2.235-3.477,0-3.462c-4.052,0.047-7.898-0.939-11.618-2.495c-3.603-1.507-7.083-3.292-10.834-4.427
		c-0.906-0.274-1.81-0.495-2.713-0.663c1.938-0.022,3.879,0.077,5.807,0.253c4.6,0.42,9.033,1.31,13.439,2.701
		c3.965,1.252,7.896,2.878,12.072,3.268c4.527,0.422,9.305-0.618,13.107-3.141c-0.438,2.314-0.761,4.654-1.058,6.983
		c-0.055,0.017-0.111,0.026-0.164,0.045c-0.251,0.091-0.398,0.166-0.512,0.208c-0.177,0.067-0.356,0.127-0.537,0.18
		c-0.37,0.108-0.748,0.186-1.129,0.242c-0.042,0.006-0.097,0.013-0.104,0.014c-0.101,0.012-0.202,0.023-0.303,0.032
		c-0.205,0.019-0.41,0.032-0.615,0.041c-0.469,0.019-0.939,0.013-1.407-0.014c-1.742-0.101-3.516-0.145-5.228-0.471
		c-0.565-0.108-0.853,0.582-0.385,0.914c1.248,0.887,2.807,1.723,4.334,1.996c1.769,0.315,3.673,0.362,5.418-0.111
		c0.108-0.029,0.223-0.062,0.341-0.097c-0.126,1.729-0.165,3.45-0.052,5.229c0.047,0.743,0.105,1.494,0.174,2.247
		c-0.451-0.594-1.174-0.847-1.921-1.094c-1.677-0.556-3.313-1.011-5.079-1.188c-4.427-0.441-8.99-0.638-13.415-0.101
		c-8.894,1.08-17.243,4.625-24.282,10.159c-3.8,2.988-6.911,6.597-9.414,10.729c-0.247,0.407,0.351,0.723,0.622,0.363
		c4.774-6.338,11.962-11.076,19.286-13.957c7.426-2.922,15.169-4.241,23.123-3.583c2.073,0.171,4.137,0.104,6.151,0.684
		c0.74,0.213,1.477,0.443,2.207,0.69c0.213,0.072,0.419,0.144,0.63,0.194c0.152,0.238,0.307,0.474,0.456,0.713
		c0.327,0.523,0.646,1.046,0.957,1.575C421.818,248.986,417.636,250.796,413.648,253.003z M427.044,222.979
		c0.033-0.001,0.066-0.009,0.099-0.013c-0.054,0.019-0.107,0.037-0.161,0.055C427.003,223.006,427.024,222.993,427.044,222.979z
		 M428.052,222.655c-0.185,0.063-0.37,0.126-0.554,0.189c0.112-0.067,0.21-0.156,0.277-0.271c0.018-0.031,0.038-0.071,0.057-0.103
		c0.099-0.062,0.2-0.122,0.3-0.182C428.104,222.411,428.078,222.533,428.052,222.655z M493.531,204.944
		c-1.921,0.368-3.58,1.174-4.865,2.334c-5.957-3.494-12.021-6.677-18.178-9.575c-0.004-0.439-0.021-0.876-0.061-1.309
		c-0.131-1.432-2.328-1.484-2.274,0c-0.008,0.072-0.013,0.144-0.021,0.216c-23.382-10.676-48.157-17.119-74.145-19.371
		c-32.116-2.783-64.995-0.753-96.514,6.028c-58.003,12.479-111.989,47.674-143.978,98.061
		c-8.552,13.471-15.441,27.974-20.399,43.142c-4.575,13.998-9.003,30.215-8.305,45.221c-8.459,1.098-16.475,4.745-23.085,10.132
		c2.959-14.912,4.644-29.903,8.966-44.605c4.711-16.027,11.113-31.563,18.961-46.306c15.914-29.893,37.798-56.611,64.121-77.935
		c26.245-21.261,56.594-36.424,89.366-44.541c34.128-8.453,69.925-11.235,104.992-9.147c18.623,1.108,37.283,3.692,55.241,8.854
		c21.508,6.183,41.993,15.815,60.958,27.643c-0.576,0.455-1.141,0.929-1.728,1.549c-1.332,1.406-2.14,1.986-3.93,2.885
		c-0.919,0.462-1.694,0.837-2.447,1.568C494.689,201.259,494.017,203.037,493.531,204.944z M485.771,213.562
		c-2.868,1.055-6.189,2.377-8.31,4.401c-0.346,0.33-0.632,0.697-0.882,1.085c-2.682-1.048-5.463-1.686-8.316-1.948
		c1.02-1.829,1.679-3.842,1.984-6.018c0.318-2.261-0.002-4.593-0.062-6.866c-0.017-0.665-0.073-1.33-0.127-1.995
		c0.03-0.169,0.056-0.338,0.084-0.507c5.52,2.631,10.972,5.5,16.349,8.643C486.083,211.331,485.83,212.402,485.771,213.562z
		 M444.956,219.353c1.904-1.461,3.545-3.36,4.744-5.025c1.771-2.459,3.187-4.809,3.857-7.24c0.056,0.83,0.074,1.667,0.016,2.518
		c-0.034,0.49-0.096,0.974-0.17,1.455c-0.392,1.235-0.911,2.433-1.597,3.587c-1.466,2.466-3.329,4.234-6.271,4.639
		C445.343,219.314,445.149,219.331,444.956,219.353z M452.704,219.374c0.128,0.007,0.256-0.001,0.379-0.034
		c4.696-1.259,8.528-5.086,11.402-8.83c0.612-0.797,1.184-1.626,1.732-2.471c-0.67,2.681-1.326,5.36-1.694,8.094
		c-1.149,1.57-2.577,2.941-4.259,4.139c-3.139,2.235-6.487,4.195-10.504,3.354c-1.136-0.238-2.268-0.65-3.374-1.095
		C448.858,222.246,450.982,221.114,452.704,219.374z M467.279,200.367c-0.301,0.761-0.639,1.494-0.948,2.163
		c-1.021,2.216-2.29,4.319-3.766,6.262c-1.87,2.462-4.235,5.023-7.029,6.628c1.402-2.606,2.254-5.539,1.95-8.501
		c-0.104-1.012-0.429-1.936-0.727-2.901c-0.224-0.725-0.286-1.446-0.426-2.188c-0.22-1.164-0.793-2.748-1.633-3.759
		c-0.45-1.296-1.016-2.498-1.866-3.698C457.7,196.193,462.517,198.182,467.279,200.367z M439.165,218.391
		c-0.028-0.143-0.063-0.282-0.089-0.426c-0.245-1.366-0.377-2.746-0.497-4.126c1.804,0.611,3.601,1.252,5.39,1.923
		C442.451,217.104,440.733,218.256,439.165,218.391z M440.955,223.209c0.249,0.257,0.515,0.498,0.806,0.722
		c1.266,0.975,2.72,1.548,4.188,2.144c3.391,1.375,6.791,1.908,10.345,0.698c3.31-1.127,6.553-3.52,9.068-5.918
		c0.453-0.432,0.862-0.888,1.252-1.354c3.055,0.119,6.07,0.674,8.924,1.78c-0.64,1.82-1.048,3.736-2.263,5.03
		c-0.625,0.665-2.634,1.061-3.475,1.548c-1.235,0.715-2.339,1.607-3.28,2.678c-0.013,0.015-0.023,0.03-0.036,0.045
		c-1.191-0.122-2.38-0.183-3.581-0.211c-0.7-0.017-1.399-0.01-2.099,0.014c-0.739,0.025-1.45,0.215-2.189,0.269
		c-0.791,0.058-0.804,1.205,0,1.24c0.719,0.031,1.39,0.222,2.105,0.28c0.7,0.057,1.4,0.126,2.099,0.198
		c0.752,0.077,1.5,0.186,2.247,0.303c-0.76,1.478-1.103,3.08-1.072,4.829c-4.217-0.331-8.501-0.349-12.379-2.21
		c-2.667-1.281-5.133-3.333-6.913-5.695C443.211,227.618,442.076,225.412,440.955,223.209z M488.46,238.048
		c0.486-0.406,0.928-0.886,1.335-1.396c0.375,1.064,0.717,2.141,0.996,3.233c0.133,0.519,0.24,1.041,0.335,1.565
		c-1.076-0.996-2.208-1.932-3.388-2.81C487.919,238.492,488.143,238.313,488.46,238.048z M129.337,369.344
		c-0.804,0.015-1.604,0.063-2.403,0.125c2.665-12.689,3.961-25.579,7.702-38.13c4.078-13.682,9.72-26.894,16.732-39.329
		c14.135-25.068,33.848-46.802,56.87-64.007c23.501-17.562,50.347-30.973,78.751-38.416c30.48-7.988,62.512-10.799,93.954-9.438
		c24.138,1.044,47.309,5.345,69.434,13.314c0.166,0.633,0.277,1.279,0.486,1.898c0.404,1.197,0.759,2.406,1.115,3.615
		c0.601,5.501-1.115,9.18-4.765,13.433c-0.118,0.138-0.247,0.286-0.382,0.44c-0.037-0.017-0.067-0.038-0.105-0.053
		c-2.837-1.099-5.696-2.11-8.569-3.058c-0.12-0.838-0.271-1.672-0.481-2.497c-0.216-0.846-1.251-1.515-2.113-1.2
		c-1.282,0.469-2.265,1.125-3.076,1.917c-20.857-6.142-42.556-8.579-64.395-8.683c-26.995-0.128-54.444,2.969-80.399,10.562
		c-47.913,14.016-91.405,46.736-116.786,89.861c-13.16,22.361-22.927,49.086-22.942,75.349
		C142.667,371.367,136.304,369.212,129.337,369.344z M191.912,398.934c-2.996-2.552-6.731-4.427-10.602-5.186
		c-3.226-0.632-6.622-0.332-9.836,0.664c-0.863,0.24-1.708,0.558-2.526,0.947c-2.198,0.961-4.251,2.244-6.039,3.765
		c-1.466-9.104-6.341-17.404-13.366-22.917c3.939-23.294,9.095-45.656,20.165-66.811c11.289-21.575,27.002-40.629,45.615-56.288
		c19.343-16.273,42.079-29.363,66.069-37.404c24.799-8.313,51.239-11.919,77.318-12.586c24.165-0.618,48.323,1.462,71.471,8.083
		c-0.443,0.827-0.864,1.707-1.319,2.621c-0.877,1.76-2.277,3.618-2.768,5.542c-0.142,0.069-0.27,0.137-0.359,0.202
		c-1.41,1.027-2.602,2.105-4.261,2.752c-2.693,1.05-5.602,0.838-8.34,1.581c-3.159-0.781-6.234-1.844-9.339-2.831
		c-4.309-1.368-8.705-2.224-13.213-2.588c-4.131-0.333-8.743-0.592-12.711,0.801c-2.004,0.703-4.115,1.899-6.279,2.816
		c-2.381,0.582-4.744,1.064-7.286,1.006c-1.122-0.025-1.372,1.699-0.266,1.969c2.591,0.632,5.144,0.067,7.615-0.801
		c1.028-0.2,2.059-0.405,3.104-0.581c3.907-0.656,7.51-0.029,11.18,1.397c3.17,1.232,6.193,2.802,9.309,4.161
		c-13.147,1.097-26.153,4.208-36.807,12.396c-3.035,2.332-5.765,5.04-8.224,7.973c-0.805,0.757-1.55,1.576-2.212,2.471
		c-0.449,0.607,0.566,1.396,1.052,0.812c3.941-4.734,10.359-6.955,16.17-8.304c3.83-0.889,7.841-1.519,11.83-1.569
		c-2.299,1.055-4.513,2.283-6.516,3.771c-4.718,3.505-7.754,8.221-10.423,13.368c-1.071,2.066-2.181,4.121-3.741,5.866
		c-1.953,2.186-4.414,3.906-6.984,5.29c-2.859,1.54-5.975,2.467-9.198,2.836c-2.774,0.318-5.936,0.299-8.532-0.856
		c-5.364-2.385-8.843-8.356-11.103-13.585c-0.165-1.102-0.353-2.201-0.624-3.285c-0.159-0.637-1.134-0.64-1.292,0
		c-0.875,3.543-0.684,7.459,0.028,11.03c0.729,3.651,2.342,7.085,4.996,9.731c2.932,2.923,6.919,5.013,10.689,6.632
		c3.386,1.454,6.859,2.282,10.536,2.484c1.136,0.063,2.674,0.058,4.194-0.165c1.225,0.41,2.475,0.748,3.738,1.003
		c3.939,0.797,7.957,0.635,11.82-0.478c6.753-1.946,11.952-6.866,18.071-10.08c1.608-0.844,3.283-1.549,5.052-1.977
		c0.914-0.221,1.835-0.357,2.775-0.389c0.384-0.013,0.767-0.002,1.151,0.016c0.04,0.054,0.078,0.108,0.127,0.155
		c-4.874,4.185-9.773,8.689-15.486,11.62c-2.942,1.509-6.186,2.316-9.401,3.019c-3.62,0.792-7.288,1.382-10.966,1.833
		c-5.997,0.736-12.113,0.635-17.971,2.253c-5.087,1.406-9.996,3.802-14.046,7.218c-1.108,0.847-2.181,1.747-3.144,2.745
		c-2.082,2.156-3.676,4.628-4.469,7.528c-0.445,1.627-0.907,4.234-0.801,6.679c-0.055,0.266-0.03,0.5,0.055,0.697
		c0.264,2.873,1.413,5.364,4.467,5.517c0.521,0.026,0.89-0.744,0.453-1.093c-0.769-0.613-0.856-0.909-1.259-1.893
		c-0.383-0.936-0.459-1.878-0.506-2.873c0.015-0.056,0.035-0.107,0.036-0.174c0.021-1.058,0.211-1.996,0.534-2.832
		c0.543-0.94,1.174-1.811,1.87-2.623c0.971-0.813,2.205-1.397,3.682-1.732c3.714-0.843,7.741-0.522,11.472,0.04
		c10.128,1.525,21.166,7.061,31.102,1.825c1.363-0.719,2.653-1.617,3.833-2.644c-1.227,1.594-2.454,3.189-3.627,4.833
		c-2.895,4.06-7.071,6.72-10.99,9.707c-6.443,4.911-14.728,9.95-23.142,8.138c-7.783-1.677-14.084-7.341-21.116-10.734
		c-4.055-1.957-9.847-4.377-14.753-3.648c-1.888-0.603-3.807-1.133-5.75-1.575c0.08-0.434,0.079-0.891-0.043-1.352
		c-1.157-4.391-3.905-8.272-6.76-11.729c-2.557-3.095-5.54-5.823-8.814-8.144c-5.623-3.985-12.211-6.699-18.948-8.099
		c-6.76-1.404-13.744-1.493-20.549-0.343c-3.899,0.659-7.667,1.868-11.244,3.551c-3.319,1.561-6.346,3.779-9.139,6.139
		c-3.188,2.694-5.964,5.824-8.635,9.022c-2.996,3.586-5.447,7.526-8.262,11.244c-0.376,0.496,0.453,1.132,0.864,0.667
		c2.635-2.982,5.569-5.679,8.334-8.539c2.44-2.522,4.984-4.946,7.742-7.121c5.513-4.346,11.614-7.607,18.499-9.047
		c3.512-0.735,7.155-0.978,10.792-0.843c1.292,0.048,2.582,0.154,3.866,0.302c0.147,0.017,0.664,0.086,0.687,0.087
		c0.258,0.038,0.516,0.075,0.773,0.116c0.735,0.117,1.469,0.25,2.2,0.39c2.974,0.569,5.901,1.391,8.732,2.469
		c0.365,0.139,0.726,0.286,1.088,0.429c0.032,0.013,0.095,0.039,0.155,0.064c0.137,0.059,0.274,0.118,0.41,0.179
		c0.727,0.323,1.447,0.663,2.157,1.022c1.504,0.759,2.967,1.599,4.38,2.517c0.838,0.545,1.648,1.124,2.454,1.714
		c0.009,0.006,0.069,0.052,0.129,0.097c0.124,0.097,0.392,0.306,0.43,0.336c0.423,0.335,0.84,0.676,1.251,1.026
		c1.524,1.298,2.96,2.701,4.292,4.195c1.521,1.707,2.231,2.638,3.526,4.61c0.826,1.258,1.605,2.546,2.413,3.815
		c-1.639-0.186-3.283-0.309-4.929-0.363c-0.071-0.568-0.308-1.116-0.735-1.538c-1.705-1.687-3.517-3.201-5.387-4.698
		c-1.765-1.413-3.225-2.733-5.192-3.951c-3.527-2.185-7.307-3.808-11.349-4.759c-8.465-1.99-18.022-2.128-26.347,0.55
		c-17.091,5.497-29.079,21.704-32.725,38.862c-2.189,10.299-1.765,20.873-0.533,31.263c0.627,5.285,1.433,10.547,2.208,15.812
		c0.107,0.728,0.208,1.457,0.312,2.186c-0.139-0.977,0.037,0.286,0.066,0.513c0.052,0.406,0.102,0.812,0.151,1.218
		c0.207,1.718,0.386,3.439,0.533,5.162c0.305,3.575,0.474,7.163,0.451,10.751c-0.002,0.237-0.012,0.473-0.015,0.71
		c-1.015,0.263-1.967,0.64-2.995,0.981c-0.792-1.408-1.344-3.047-2.274-4.345C194.756,401.73,193.436,400.233,191.912,398.934z
		 M251.593,460.826c-2.406-0.828-5.083-1.24-7.241-2.403c-3.951-2.128-7.141-6.021-9.258-9.908
		c-0.869-1.595-1.538-3.259-1.927-5.036c-0.069-0.316-0.132-0.633-0.187-0.951c-0.019-0.112-0.077-0.518-0.099-0.656
		c-0.099-0.821-0.17-1.645-0.217-2.47c-0.209-3.713-0.214-7.485,0.039-11.196c0.133-1.95,0.232-3.882,0.539-5.815
		c0.008-0.052,0.016-0.105,0.024-0.158c1.478,3.574,3.172,7.052,5.196,10.399c5.452,9.013,11.065,17.798,13.136,28.167
		C251.595,460.808,251.594,460.817,251.593,460.826z M231.353,417.249c0.088,0.248,0.182,0.492,0.272,0.74
		c-0.139,0.297-0.292,0.588-0.425,0.888C231.258,418.334,231.309,417.792,231.353,417.249z M254.528,320.148
		c-0.132-0.073-0.277-0.137-0.432-0.194c-0.457-0.452-0.923-0.866-1.52-1.153c-0.662-0.318-1.373-0.416-2.093-0.526
		c-1.454-0.222-2.915-0.392-4.385-0.443c-2.703-0.094-5.408,0.238-8.047,0.817c-5.596,1.229-10.442,4.035-14.424,8.125
		c-3.842,3.946-6.703,8.6-8.768,13.613c-8.82,11.891-7.474,31.164-7.457,44.927c0.004,2.875,0.066,5.746,0.103,8.614
		c-1.122-12.514-3.665-24.821-3.743-37.499c-0.06-9.837,1.505-19.384,6.11-28.063c0.974-1.836,2.044-3.625,3.213-5.344
		c0.297-0.438,0.601-0.871,0.912-1.3c0.088-0.121,0.435-0.585,0.546-0.736c0.615-0.79,1.255-1.561,1.919-2.309
		c1.375-1.548,2.849-3.007,4.42-4.354c0.347-0.297,0.703-0.583,1.054-0.875c0.05-0.042,0.084-0.07,0.12-0.1
		c0.152-0.116,0.305-0.231,0.459-0.345c0.868-0.641,1.76-1.248,2.676-1.818c0.819-0.509,1.656-0.99,2.51-1.437
		c0.402-0.211,0.808-0.415,1.218-0.611c0.205-0.098,0.411-0.195,0.618-0.29c0.116-0.053,0.421-0.186,0.532-0.237
		c0.386-0.158,0.775-0.312,1.166-0.457c8.22-0.789,17.879,0.725,25.162,4.082c2.171,1,4.26,2.242,6.19,3.651
		c0.282,0.206,0.566,0.434,0.851,0.667C260.312,317.457,257.337,318.664,254.528,320.148z M189.11,460.761
		c2.31-1.463,4.431-3.273,6.305-5.075c5.329-5.127,9.666-11.505,12.68-18.249c1.514-3.388,2.651-6.816,3.043-10.518
		c0.018-0.167,0.001-0.332-0.029-0.496c5.452-9.817,6.26-22.594,6.029-33.361c-0.189-8.78-1.933-17.467-1.953-26.255
		c-0.017-7.665,1.589-14.695,3.55-21.838c2.266-4.675,5.153-8.993,9.214-12.413c1.956-1.647,4.116-3.039,6.403-4.175
		c-3.552,4.654-6.107,10.114-8.086,15.558c-2.141,5.888-3.533,12.134-3.893,18.413c-0.363,0.262-0.632,0.653-0.638,1.116
		c-0.237,17.75,1.25,35.218-2.178,52.852c-1.547,7.96-3.752,15.703-6.501,23.324c-1.34,3.715-2.826,7.412-4.977,10.581
		C202.222,454.672,196.006,459.395,189.11,460.761z M215.99,459.303c-0.546-3.083-0.556-6.749,0.016-9.756
		c0.058-0.304,0.045-0.618-0.017-0.924c3.797-5.004,6.365-11.252,8.222-17.479c-1.786,8.581-3.665,17.196-3.464,25.988
		c0.068,2.954,0.49,6.051,1.393,8.97c0.527,4.065,1.979,8.121,3.966,11.654C220.795,473.204,217.222,466.267,215.99,459.303z
		 M226.05,462.129c-0.224-0.36-0.523-0.619-0.858-0.792c-0.063-1.195-0.09-2.393-0.095-3.583
		c-0.021-5.247,0.851-10.394,1.791-15.537c0.087-0.475,0.179-0.949,0.27-1.424c0.181,3.037,0.751,5.929,2.026,8.801
		c2.1,4.731,5.552,8.985,9.634,12.149c2.443,1.893,5.157,3.044,8.187,3.637c1.321,0.259,2.669,0.286,3.999,0.476
		c0.411,0.059,0.819,0.117,1.226,0.173c0.157,1.344,0.296,2.703,0.436,4.066C243.632,472.61,231.319,470.614,226.05,462.129z
		 M283.017,578.668c-0.514,0.245-1.017,0.513-1.52,0.781c-0.136-0.042-0.28-0.067-0.437-0.063c-2.361,0.064-4.857,2.034-6.649,3.426
		c-0.807,0.626-1.561,1.321-2.279,2.052c-0.792,0.534-1.561,1.102-2.315,1.693c-1.154-1-2.401-2.3-3.412-3.44
		c-1.777-2.003-3.393-4.144-4.856-6.386c-1.419-2.174-2.777-4.517-3.873-6.968c-0.356-1.542-0.636-3.102-0.872-4.675
		c-0.256-1.702-0.554-3.392-0.768-5.099c-0.136-1.085-0.191-2.305-0.409-3.449c0.007-0.027,0.014-0.054,0.021-0.08
		c0.258,0.043,0.524,0.073,0.81,0.081c0.991,0.026,1.997-0.039,2.984-0.124c1.96-0.167,3.906-0.491,5.823-0.928
		c3.697-0.842,7.34-1.913,11.073-2.593c1.433-0.261,1.693-1.908,1.22-3c0.157,0.363-0.05-0.333-0.051-0.341
		c-0.049-0.279-0.104-0.554-0.142-0.835c-0.07-0.517-0.115-1.039-0.179-1.557c-0.054-0.444-0.119-0.872-0.193-1.295
		c0.694-0.282,1.371-0.609,2.034-0.953c0.998-0.518,2.423-1.022,3.136-1.92c0.082-0.104,0.153-0.218,0.211-0.338
		c0.674,2.935,1.359,5.865,2.129,8.769c0.972,3.666,2.342,7.24,2.708,11.043c0.375,3.906-0.95,7.178-1.62,10.926
		c-0.056,0.311-0.104,0.635-0.15,0.962c-0.373-0.469-0.732-0.949-1.072-1.442c-0.982-1.424-1.915-2.875-2.782-4.371
		c-1.111-1.917-1.95-3.931-2.797-5.97c-0.818-1.967-1.371-4.59-2.893-6.152c-0.379-0.389-0.998-0.079-1.024,0.424
		c-0.059,1.136,0.305,2.403,0.574,3.505c0.284,1.165,0.508,2.342,0.772,3.51c0.529,2.339,1.231,4.595,2.219,6.783
		c0.743,1.646,1.523,3.291,2.471,4.83c0.639,1.037,1.379,2.181,2.272,3.128C283.126,578.626,283.072,578.642,283.017,578.668z
		 M333.023,587.499c1.218,1.239,2.345,2.416,3.279,3.903c0.37,0.588,0.663,1.228,1.008,1.831c-0.082,0.207-0.13,0.43-0.166,0.666
		c-0.136,0.898-0.447,1.75-0.679,2.622c-1.781,0.684-3.27,2.052-5.196,3.116c-3.739,2.064-7.419,2.597-11.655,2.263
		c-3.34-0.263-10.558-0.55-13.943-3.258c-0.024-0.416-0.128-0.838-0.321-1.245c0.494,1.042,0.121,0.229-0.007-0.171
		c-0.127-0.397-0.223-0.805-0.313-1.212c-0.224-1.017-0.364-2.049-0.579-3.067c-0.21-0.999-0.414-1.999-0.638-2.994
		c2.12,0.289,4.326,0.159,6.407-0.132c2.94-0.41,5.844-1.476,8.496-2.792c0.111-0.055,0.222-0.107,0.333-0.162
		c0.968-0.203,1.924-0.458,2.849-0.774c1.97-0.672,3.849-1.614,5.4-3.02c0.283-0.149,0.547-0.317,0.814-0.484
		C329.758,584.26,331.438,585.887,333.023,587.499z M299.018,503.066c1.959,6.408,4.436,12.673,6.587,19.02
		c1.737,5.126,4.859,9.406,7.548,14.054c1.057,1.826,2.229,3.802,2.592,5.915c0.318,1.852-0.185,3.572-1.151,5.148
		c-1.124,1.832-2.763,3.354-3.768,5.252c-0.138,0.261-0.264,0.523-0.384,0.786c-0.297-0.372-0.589-0.751-0.865-1.166
		c-3.039-4.569-5.204-9.642-7.002-14.809c-1.755-5.043-3.104-10.191-4.937-15.217c-1.139-3.121-2.406-6.357-3.296-9.649
		c0.19-6.746,0-13.816-2.518-20.021c-1.218-3.001-3.823-5.631-4.735-8.722c-1.125-3.814,1.195-8.106,1.769-11.903
		c1.627-10.78-0.574-23.007-4.734-33.952c5.427,3.294,11.294,5.83,17.421,7.543c3.938,1.101,9.212,2.345,14.22,2.473
		c-0.185,0.821-0.343,1.634-0.528,2.375c-0.469,1.873-0.945,3.681-1.232,5.521c-2.622,3.098-5.215,6.222-7.676,9.438
		c-3.438,4.493-8.949,10.009-10.25,15.57c-0.117,0.501,0.211,1.025,0.685,1.131c-1.088,2.89-1.282,5.899-0.368,8.839
		c0.113,0.972,0.255,1.92,0.384,2.795C297.258,496.735,298.058,499.928,299.018,503.066z M444.125,504.342
		c-3.939,6.386-8.827,12.397-11.99,19.224c-0.473,1.021-0.844,2.043-1.267,3.08c-1.168,2.858-2.634,4.99-4.109,7.609
		c-1.402,2.491-1.955,5.449-3.269,7.973c-2.539,4.878-10.101,2.599-14.643,2.311c-1.389-1.011-2.68-2.158-4.21-2.947
		c-0.712-0.367-1.38,0.235-1.263,0.971c1.007,6.382,8.38,9.462,14.184,9.591c-2.402,6.387-6.259,12.121-11.314,16.806
		c-1.966,1.822-4.162,3.245-6.296,4.847c-0.426,0.32-1.085,0.631-1.499,1.021c-1.833-1.146-6.046-4.344-6.736-4.994
		c-6.422-6.054-10.09-13.72-13.91-21.514c5.774-4.939,15.119-2.905,21.393-7.171c1.598-1.086,2.49-2.233,2.707-4.164
		c0.55-4.891,0.853-8.485,4.453-12.437c0.031-0.034,0.046-0.078,0.072-0.116c2.406-1.875,5.004-3.487,6.991-4.853
		c4.547-3.128,8.715-5.908,12.014-10.394c4.025-5.473,7.694-13.583,8.262-21.267c0.202-0.348,0.254-0.774,0.062-1.185
		c0.185-5.867-1.555-11.384-6.466-15.167c-3.064-4.551-7.968-7.942-12.339-11.062c-2.53-1.805-5.217-3.472-7.955-5.104
		c-5.467-5.999-13.901-7.339-18.563-14.092c-2.2-3.187-4.523-4.733-7.245-5.208c-0.159-0.046-0.326-0.081-0.506-0.085
		c-0.021,0-0.043,0-0.064-0.001c-0.886-0.104-1.812-0.11-2.793-0.02c-12.331,0.088-24.559,2.601-36.838,3.519
		c-14.716,1.101-30.174-0.812-43.991-6.081c-1.768-0.674-3.481-1.398-5.146-2.168c-2.502-1.308-4.927-2.763-7.247-4.364
		c-5.702-3.935-10.908-8.773-15.656-13.802c-4.815-5.1-7.201-11.729-11.672-17.017c-4.755-9.471-7.932-19.619-8.277-30.349
		c-0.036-1.131-1.844-1.495-2.065-0.28c-1.897,10.404,1.983,22.382,5.899,31.895c2.492,6.054,5.52,12.198,9.309,17.753
		c0.584,0.984,1.168,1.952,1.732,2.896c3.806,6.37,8.867,11.677,14.783,16.108c4.268,13.432,7.377,27.381,3.895,41.381
		c-0.679,2.729-1.591,5.833-0.783,8.642c0.734,2.555,2.689,4.731,4.073,6.945c3.146,5.033,4.611,11.331,5.363,17.509
		c0.044,1.668,0.207,3.314,0.472,4.947c0.078,1.076,0.142,2.136,0.197,3.173c0.027,0.51,0.307,0.833,0.658,0.994
		c0.994,4.111,2.36,8.23,3.492,12.583c2.298,8.837,4.41,17.976,9.588,25.682c0.847,1.26,1.764,2.418,2.762,3.487
		c0.419,0.971,1.271,1.778,2.312,2.18c0.944,0.787,1.947,1.52,3.031,2.188c4.205,2.592,5.209,6.956,7.827,10.967
		c1.029,1.576,2.229,3.075,3.508,4.529c-0.892,0.347-1.771,0.746-2.633,1.092c-1.575,0.631-3.136,1.28-4.781,1.706
		c-2.64,0.683-5.18,1.775-7.863,2.294c-1.785,0.345-4.186,0.537-6.357,0.518c-1.033-0.009-2.068,0.039-3.093-0.107
		c-0.051-0.007-0.101-0.02-0.152-0.029c-1.183-1.678-2.663-3.111-4.87-4.094c-3.431-1.527-4.819-0.984-4.065-5.738
		c0.416-2.624,1.429-5.109,1.754-7.76c0.828-6.762-2.698-13.73-5.052-19.904c-2.282-5.984-3.816-12.188-5.704-18.301
		c-3.625-11.742-7.473-23.102-14.448-33.305c-1.619-2.367-2.712-4.853-4.414-7.204c-1.728-2.386-2.74-4.686-3.271-7.618
		c-1.271-7.021-0.372-14.51-4.741-20.561c-1.472-10.095-6.254-19.266-11.364-27.969c-6.686-11.388-9.893-23.845-14.102-36.143
		c0.226-7.402-0.291-14.809-1.858-21.925c0.102-2.036,0.261-4.042,0.465-5.95c0.668-6.249,1.81-12.473,3.816-18.441
		c0.542-1.612,1.159-3.229,1.838-4.833c1.426-2.623,3.018-5.161,4.818-7.577c3.698-4.963,8.207-9.287,13.358-12.615
		c0.32-0.032,0.639-0.059,0.961-0.101c1.146-0.148,1.956-0.917,2.274-1.811c2.754-1.478,5.663-2.683,8.714-3.551
		c0.751-0.214,1.506-0.402,2.264-0.575c0.391,0.197,0.793,0.363,1.216,0.46c1.875,0.432,3.639-0.187,4.717-1.429
		c1.47-0.147,2.946-0.224,4.424-0.244c0.254,0.031,0.508,0.038,0.759-0.005c3.297,0.001,6.597,0.3,9.86,0.847
		c0.531,0.28,1.124,0.399,1.739,0.315c1.88,0.367,3.744,0.812,5.584,1.329c4.074,1.362,7.646,2.367,11.414,4.654
		c3.772,2.29,7.326,4.987,10.914,7.55c7.1,5.072,14.164,9.61,23.304,8.498c8.498-1.034,14.743-6.448,20.813-12.02
		c3.386-3.108,6.174-6.472,8.757-10.268c1.437-2.112,2.498-4.268,3.484-6.458c2.405-3.613,4.665-7.326,6.718-11.135
		c2.227-4.132,4.318-8.322,6.668-12.39c3.267-5.655,6.829-11.151,10.75-16.376c4.022-5.36,8.406-10.467,13.93-14.332
		c2.331-1.631,4.799-3.052,7.26-4.476c2.7-1.562,5.251-3.303,7.772-5.131c0.256,0.394,0.758,0.634,1.237,0.615
		c0.066,0.203,0.127,0.409,0.199,0.61c0.902,2.51,3.122,5.673,6.09,3.621c1.432-0.99,0.16-3.271-1.383-2.366
		c-0.275,0.162-0.204,0.083-0.418,0.192c-0.043,0.022-0.076,0.033-0.101,0.039c-0.197-0.047-0.044,0.044-0.18-0.062
		c-0.068-0.054-0.146-0.073-0.331-0.295c-0.517-0.619-0.971-1.77-1.251-2.694c-0.853-2.809-1.197-5.78-1.372-8.701
		c-0.355-5.921,0.643-12.107,2.111-17.827c0.651-2.535,1.516-5.804,3.411-7.903c0.331,2.114,0.79,4.194,1.364,6.242
		c0.327,2.168,0.805,4.328,1.681,6.475c2.975,7.293,6.419,12.69,5.323,20.931c-0.13,0.98,1.53,1.199,1.729,0.234
		c0.932-4.523,0.955-8.793-0.073-13.047c0.479,0.524,0.982,1.034,1.522,1.523c4.636,4.2,10.665,4.832,16.643,5.25
		c2.882,0.202,5.82,0.349,8.65,0.971c3.008,0.661,5.871,1.866,8.586,3.307c0.408,0.216,0.807,0.45,1.209,0.678
		c0.138,0.113,0.295,0.204,0.469,0.263c4.777,2.776,9.145,6.343,13.003,10.269c0.843,0.858,1.644,1.76,2.385,2.708
		c-0.615-0.512-1.24-1.007-1.874-1.464c-2.128-1.538-4.781-3.419-7.505-4.03c-1.904-1.858-4.004-3.478-6.404-4.768
		c-3.313-1.781-6.896-3.068-10.422-4.356c-0.459-0.167-0.644,0.483-0.308,0.731c2.793,2.062,5.989,3.49,8.967,5.25
		c3.234,1.913,6.022,4.348,8.474,7.189c0.579,0.671,1.151,1.371,1.709,2.089c-0.051,0.341,0.085,0.703,0.546,0.872
		c0.054,0.02,0.106,0.046,0.16,0.067c2.873,3.908,5.135,8.394,5.069,13.048c-0.179,0.718-0.305,1.44-0.367,2.173
		c-0.786-2.99-1.476-5.989-3.493-8.486c-2.74-3.391-7.048-5.591-10.804-7.641c-3.583-1.956-7.143-4.098-10.919-5.659
		c-3.723-1.539-7.607-2.645-11.349-4.134c-2.112-0.84-4.134-1.854-6.043-3.09c-1.944-1.258-3.539-2.902-5.163-4.531
		c-0.266-0.267-0.619,0.07-0.487,0.375c1.513,3.506,4.936,5.944,8.237,7.639c3.511,1.802,7.287,2.989,10.978,4.353
		c3.76,1.389,7.127,3.278,10.626,5.203c3.838,2.112,7.904,4.153,11.246,7.024c1.964,1.688,3.231,3.688,3.963,6.169
		c0.722,2.448,1.13,4.967,2.07,7.35c0.265,0.673,1.134,1.091,1.757,0.788c-0.005,1.931,0.477,3.768,1.532,5.487
		c1.541,2.509,3.716,4.174,6.174,5.706c2.256,1.406,4.741,2.604,6.013,5.064c0.508,0.982,0.442,1.972,0.431,3.045
		c-0.007,0.701,0.051,1.389,0.14,2.073c-0.187,0.375-0.373,0.755-0.53,1.137c-0.047,0.114-0.095,0.227-0.14,0.341
		c-0.044,0.105-0.027,0.065,0.05-0.118c-0.065,0.154-0.13,0.307-0.194,0.462c-0.08,0.234-0.142,0.475-0.219,0.71
		c-0.077,0.236-0.159,0.47-0.246,0.703c-0.05,0.132-0.102,0.263-0.154,0.395c-0.002,0.006-0.002,0.006-0.004,0.011
		c-0.009,0.019-0.018,0.037-0.033,0.07c-0.148,0.319-0.272,0.647-0.405,0.972c0.087-0.214,0.045-0.107-0.024,0.041
		c-0.058,0.124-0.118,0.246-0.182,0.366c-0.206,0.389-0.444,0.773-0.708,1.126c-0.036,0.042-0.113,0.136-0.131,0.157
		c-0.077,0.085-0.157,0.166-0.24,0.244c-0.195,0.185-0.249,0.222-0.43,0.349c-0.194,0.135-0.377,0.32-0.575,0.432
		c-0.23,0.131-0.526,0.193-0.78,0.258c-0.579,0.149-0.433,0.988,0.137,1.014c0.293,0.013,0.583,0.007,0.876-0.022
		c0.306-0.031,0.612,0.005,0.916-0.064c0.522-0.119,1.036-0.365,1.497-0.631c1.01-0.585,1.837-1.487,2.451-2.474
		c0.028-0.045,0.047-0.097,0.073-0.144c0.212,1.167,0.373,2.342,0.369,3.524c-0.016,4.78-4.548,8.175-8.429,10.177
		c-0.192,0.099-0.375,0.177-0.557,0.25c-1.996-0.391-4.01-1.527-5.098-2.917c-0.631-0.806-1.948-1.116-3.035-0.91
		c-1.316-1.087-2.674-2.111-4.203-2.83c-1.169-0.55-2.634,0.961-1.49,1.931c0.913,0.775,1.906,1.45,2.889,2.14
		c-1.307,0.354-2.572,0.143-3.795-0.447c-0.868-0.571-1.719-1.164-2.558-1.766c-3.545-3.11-6.711-8.352-9.522-10.11
		c-2.042-1.277-4.241-2.057-6.513-2.602c-1.559-0.802-3.253-1.38-4.862-1.802c-3.329-0.873-6.768-1.143-10.146-1.752
		c-1.608-0.29-3.171-0.681-4.683-1.201c-3.174-1.674-6.042-3.91-8.48-6.621c-2.411-2.681-4.95-5.575-6.16-9.017
		c-0.116-0.33-0.208-0.67-0.292-1.014c0.063-0.095,0.115-0.205,0.137-0.344c0.425-2.596,0.361-5.327,0.998-7.879
		c0.629-2.522,2.193-4.606,2.454-7.207c0.126-1.252-1.338-1.707-2.257-1.295c-2.879,1.289-3.995,4.891-4.497,7.793
		c-0.229,1.323-0.354,2.558-0.303,3.741c-2.98,3.964,1.043,14.332,2.97,17.978c1.849,3.499,4.522,6.604,7.66,9.137
		c-1.594,3.797-1.798,8.363-1.949,12.315c-0.07,1.832-0.042,3.638,0.05,5.432c-0.16,5.911,0.539,11.82,1.297,17.682
		c0.832,6.438,1.928,12.926,1.875,19.436c-0.053,6.593-1.127,13.616-3.724,19.706c-1.854,4.348-4.523,8.27-6.637,12.486
		c-1.105,2.203-2.108,4.434-3.062,6.687c0.098-2.598,0.132-5.242-0.156-7.693c-0.376-3.201-1.609-6.193-2.684-9.219
		c-0.286-4.493-0.781-8.962-1.586-13.371c-1.14-6.247-2.599-12.417-3.581-18.698c-0.976-6.249-2.064-12.604-2.198-18.937
		c-0.076-3.567,0.062-7.099,0.425-10.648c0.383-3.741,1.107-7.357,1.785-11.047c0.112-0.608-0.709-0.835-0.923-0.255
		c-2.214,6.001-2.936,12.593-3.386,18.931c-0.448,6.318-0.542,12.709,0.078,19.019c0.631,6.436,1.915,12.792,3.31,19.099
		c1.374,6.209,2.141,12.518,2.525,18.862c0.143,2.374,0.244,4.755,0.345,7.138c-0.463,3.634-1.314,7.172-1.889,10.792
		c-0.58,3.644-1.007,7.146-2.267,10.643c-0.791,2.194-1.629,4.254-2.247,6.395c-0.054-0.004-0.103-0.012-0.157-0.016
		c-10.386-0.621-18.79,2.984-26.769,9.249c-0.711,0.558,0.198,1.449,0.887,1.15c7.131-3.092,15.35-3.772,22.957-2.759
		c3.353,0.447,6.475,0.881,9.11,3.222c2.107,1.871,3.261,4.403,4.956,6.587c0.322,0.924,0.642,1.783,0.863,2.499
		c0.972,3.142,1.821,6.637,3.772,9.339c1.798,9.4,7.918,16.575,15.976,21.814c4.746,3.085,8.553,4.367,8.3,10.661
		c-0.009,0.236-0.033,0.458-0.05,0.686c-1.691,2.692-2.427,5.585-4.988,7.761c-3.01,2.558-5.619,2.876-9.44,3.031
		c-1.214,0.049-1.441,1.458-0.575,2.124c2.169,1.672,4.648,1.882,7.033,1.162C447.085,499.01,445.528,502.067,444.125,504.342z
		 M432.238,250.908C432.183,250.919,432.186,250.903,432.238,250.908L432.238,250.908z M490.807,257.097
		c-0.385-0.472-0.78-0.932-1.18-1.384c0.629,0.37,1.237,0.771,1.833,1.19C491.227,256.899,491.001,256.97,490.807,257.097z
		 M446.875,365.84c-0.182-0.269-0.376-0.526-0.581-0.771c0.046-0.415,0.091-0.829,0.134-1.244
		C446.568,364.497,446.719,365.169,446.875,365.84z M433.637,449.062c-0.516-2.814-1.055-5.592-1.531-8.396
		c1.191,2.342,2.41,4.646,3.325,6.885c1.761,4.31,2.95,9.328,6.464,12.488c0.078,0.454,0.149,0.908,0.219,1.362
		C438.206,458.02,435.376,454.094,433.637,449.062z M446.076,460.385c0.085,0.214,0.159,0.427,0.246,0.64
		c0.59,1.444,1.067,3.059,1.68,4.579c-0.745-0.439-1.471-0.886-2.157-1.352C446.166,463.006,446.211,461.702,446.076,460.385z
		 M436.292,430.066c-0.042-0.057-0.085-0.112-0.127-0.168c0.063-0.019,0.126-0.038,0.189-0.057
		C436.332,429.916,436.313,429.991,436.292,430.066z M501.438,587.49c-0.011-0.008-0.021-0.019-0.032-0.027
		c0.024-0.032,0.049-0.064,0.074-0.096C501.465,587.41,501.452,587.448,501.438,587.49z M479.648,495.919
		c0.522,3.893-0.969,7.679-1.719,11.449c-1.275,6.413,0.632,11.897,2.684,17.94c4.461,13.132,6.415,26.946,11.986,39.742
		c1.603,3.682,3.599,6.935,5.811,10.27c1.265,1.907,2.641,4.225,3.272,6.62c-1.595,0.632-2.802,3.068-3.69,4.232
		c-0.708,0.929-1.482,1.852-2.419,2.559c-0.206,0.156-0.43,0.287-0.657,0.411c-3.394,1.288-6.986,1.988-10.655,2.147
		c-0.536,0.023-0.842,0.565-0.596,1.038c1.199,2.304,4.836,2.087,7.019,2.031c3.625-0.093,6.634-1.094,9.791-2.682
		c0.123-0.012,0.242-0.034,0.358-0.066c0.017,0.023,0.027,0.047,0.044,0.07c4.682,5.992,6.882,14.228,8.121,21.756
		c-5.996,3.387-13.176,5.833-20.005,4.45c-4.961-1.005-9.849-2.652-14.617-4.398c2.478-7.218,5.437-15.349,5.029-22.916
		c-0.073-1.344-1.156-2.037-2.417-1.841c-6.459,1.004-3.07-11.005-2.516-14.473c1.263-7.903,0.446-16.08-1.049-23.9
		c-1.916-10.025-5.167-19.721-8.368-29.391c-1.11-3.355-1.9-6.919-4.279-9.645c-4.19-4.801-7.75-8.04-8.158-14.575
		c0.57-0.802,1.185-1.668,1.815-2.583c0.434-0.481,0.871-0.958,1.289-1.456c0.235-0.28,0.297-0.588,0.259-0.873
		c3.86-6.049,7.194-13.508,2.35-19.11c-1.197-1.385-2.699-2.541-4.318-3.591c0.544-3.537-1.873-6.752-3.378-9.928
		c-1.634-3.449-3.451-6.671-5.333-9.91c-0.73-2.064-1.642-4.063-2.42-5.882c-1.082-2.532-2.196-5.426-3.545-8.188
		c0.352-1.535,0.883-3.048,1.708-4.652c0.685-1.331,1.563-2.514,2.473-3.673c1.28-0.884,2.464-1.99,3.46-2.959
		c1.942-1.888,3.692-3.963,5.549-5.932c1.515-1.606,3.104-3.043,4.829-4.38c0.054,0.528,0.115,1.056,0.181,1.584
		c-0.024,0.086-0.037,0.173-0.065,0.26c-0.084,0.398,0.028,0.713,0.224,0.945c0,0.001,0,0.002,0.001,0.003
		c0.357,12.555,2.719,24.847,6.253,36.927c2.086,7.13,3.181,14.329,4.614,21.595c0.967,4.905,3.334,8.246,6.457,12.005
		C477.222,489.593,479.181,492.438,479.648,495.919z M459.093,394.53c0.117,0.403,0.232,0.814,0.346,1.224
		c-0.269,0.248-0.506,0.558-0.655,0.984c-1.251,3.581-1.734,7.349-1.736,11.199c-0.255-0.012-0.517,0.041-0.763,0.184
		c-4.923,2.869-9.267,6.783-13.903,10.095c-2.447,1.749-4.979,3.211-7.812,4.247c-2.189,0.8-4.455,1.27-6.537,2.238
		c-1.065-1.235-2.379-2.254-3.916-3.046c2.29-6.028,4.987-11.577,5.223-18.358c0.002-0.047,0.004-0.096,0.006-0.143
		c1.619-2.826,3.325-5.624,5.023-8.396c2.289-3.736,4.721-7.43,6.764-11.308c1.546-2.935,2.833-6.032,3.641-9.255
		c0.435-1.737,0.761-3.501,1.028-5.275c0.646,1.081,1.316,2.146,1.977,3.218c1.475,2.393,2.939,4.787,4.434,7.167
		C455.198,384.056,457.527,389.133,459.093,394.53z M499.448,259.181c-0.185-0.277-0.351-0.564-0.551-0.833
		c-3.524-4.735-8.392-8.76-13.229-12.086c-0.471-0.324-0.951-0.637-1.43-0.95c1.303-1.143,1.554-2.641,2.216-4.413
		C492.704,245.533,497.069,251.943,499.448,259.181z M497.089,241.138c0.313-1.002,0.572-2.023,0.819-3.027
		c0.547-2.225,0.922-4.476,1.375-6.719c0.595-2.947-0.008-6.046-0.695-8.933c-0.181-0.761-0.703-1.164-1.302-1.289
		c0.914-0.757,1.618-1.626,2.157-2.575c51.358,35.377,85.543,90.666,98.883,151.245c-6.641-0.837-13.497-0.239-20.028,1.612
		C566.51,320.377,538.85,273.245,497.089,241.138z M678.06,454.382c-3.491,10.319-13.309,17.741-23.923,19.385
		c-4.513,0.699-8.746,0.283-12.815-0.784c-2.462-1.774-5.296-2.931-7.933-4.513c-3.46-2.076-6.831-4.237-10.238-6.395
		c-2.014-1.275-4.195,0.945-3.676,2.864c-8.031,16.558-27.578,25.164-45.375,20.217c-7.828-2.176-14.825-6.77-20.276-12.754
		c-2.885-3.168-5.29-6.769-7.126-10.639c-1.643-3.464-2.42-7.612-4.466-10.807c-0.362-0.564-1.314-0.513-1.485,0.194
		c-0.194,0.804-0.278,1.633-0.305,2.471c-0.404,0.266-0.759,0.69-0.998,1.336c-3.133,8.488-17.233,10.5-24.277,6.908
		c-3.685-1.879-7.446-6.375-9.189-11.146c0.121-0.151,0.177-0.343,0.089-0.552c-3.131-7.443,7.555-10.424,5.129-17.224
		c-1.179-3.304-3.388-5.942-4.222-9.54c-1.024-4.419-0.888-8.246-0.088-12.682c0.061-0.339-0.064-0.643-0.266-0.869
		c1.316-3.621,3.437-6.958,6.286-9.573c9.529-8.745,24.937-7.047,34.334,0.891c1.406,1.188,3.985,1.33,4.918-0.634
		c4.698-9.89,11.298-17.676,21.249-22.583c7.983-3.938,17.338-5.643,26.228-4.432c0.289,0.149,0.628,0.185,0.96,0.131
		c1.297,0.208,2.582,0.479,3.85,0.816c19.285,5.128,34.411,25.79,28.642,45.873c-0.096,0.335-0.117,0.637-0.108,0.925
		c-0.108,1.428,0.906,3.042,2.574,3.066c0,0.008,0,0.015,0,0.023c10.115-0.75,20.086-1.736,29.641,2.646
		C676.039,431.975,682.005,442.721,678.06,454.382z"/>
	<path d="M552.784,441.479c3.906,4.573,12.93,9.877,18.901,6.476c0.512-0.292,0.154-1.021-0.385-0.914
		c-4.116,0.819-11.724-4.904-14.344-7.618c-2.908-3.013-5.725-6.622-5.78-10.952c-0.006-0.453-0.403-0.681-0.811-0.618
		c-1.68,0.262-2.532,1.038-2.839,2.095c-5.27,3.707-10.372,5.56-17.016,4.902c-7.876-0.781-13.793-7.016-12.749-15.15
		c0.084-0.653-0.978-0.773-1.136-0.154c-1.922,7.538,1.403,14.836,8.822,17.739c7.612,2.979,16.192,1.63,22.931-2.61
		C549.664,437.515,551.853,440.39,552.784,441.479z"/>
	<path d="M162.859,426.665c0.11-1.171-1.886-1.457-2.072-0.28c-0.985,6.254-6.069,11.378-10.441,15.668
		c-4.999,4.906-10.708,8.132-17.661,9.425c-14.496,2.695-31.578-3.152-37.305-17.682c-0.793-2.012-3.848-1.848-3.913,0.53
		c-0.539,19.745,23.668,27.486,39.899,25.556c8.627-1.026,16.812-4.533,23.178-10.502c3.02-2.832,4.995-6.27,6.428-10.133
		C162.568,434.944,162.433,431.182,162.859,426.665z"/>
	<path d="M644.737,455.417c4.142-1.038,6.032-3.367,8.723-6.568c0.77-0.916-0.423-2.15-1.326-1.326
		c-4.114,3.758-12.448,4.493-17.534,2.708c-6.033-2.118-9.088-7.792-12.083-13.064c-1.543-2.717-6.663-2.519-7.203,0.941
		c-1.201,7.702-15.508,11.724-22.143,11.746c-0.727,0.002-0.775,0.957-0.162,1.197c5.204,2.04,9.518,2.85,15.012,0.771
		c4.265-1.613,6.964-4.362,10.114-6.992c4.054,5.154,10.159,9.088,16.451,10.609C637.919,456.245,641.412,456.251,644.737,455.417z"
		/>
	<path d="M572.029,478.27c-8.682-5.064-12.847-14.353-16.022-23.447c-1.033-2.959-5.596-2.597-5.617,0.76
		c-0.078,12.386,10.058,20.93,21.133,23.887C572.239,479.66,572.678,478.648,572.029,478.27z"/>
	<path d="M529.259,450.1c-4.169,4.901-8.971,3.887-14.577,2.642c-0.566-0.125-1.231,0.385-1.009,1.009
		c3.141,8.839,15.336,6.684,20.445,1.208C537.157,451.702,532.105,446.754,529.259,450.1z"/>
	<path d="M656.257,465.9c-1.428-0.758-2.485-0.398-3.969-0.156c-1.677,0.273-3.28-0.039-4.943-0.409
		c-3.323-0.739-5.521-2.989-8.588-4.154c-1.306-0.496-2.476,0.756-2.551,1.944c-0.314,4.948,5.546,8.294,9.723,9.14
		c3.414,0.691,10.962-0.518,11.129-4.969C657.078,466.751,656.74,466.156,656.257,465.9z"/>
	<path d="M591.208,475.797c-0.137-0.068-0.276-0.128-0.42-0.181c-0.357-0.188-0.743-0.274-1.155-0.258
		c-0.086-0.008-0.172-0.015-0.258-0.022c-0.189-0.016-0.378-0.032-0.568-0.048c-1.165-0.098-2.371,0.717-2.937,1.685
		c-0.552,0.943-0.589,2.036-0.171,3.027c0.407,0.964,1.177,1.687,2.204,1.969c1.111,0.306,2.523,0.02,3.309-0.875
		c0.124-0.141,0.248-0.282,0.372-0.424c0.056-0.064,0.114-0.127,0.169-0.193c0.156-0.202,0.313-0.405,0.469-0.607
		c0.121-0.255,0.229-0.515,0.326-0.78c0.035-0.259,0.069-0.517,0.104-0.775c0.015-0.402-0.069-0.776-0.251-1.124
		C592.171,476.646,591.759,476.065,591.208,475.797z"/>
	<path d="M607.166,467.28c-1.396,1.062-2.142,2.648-3.335,3.93c-1.018,1.094-1.986,2.157-2.886,3.338
		c-0.395,0.518,0.055,1.199,0.56,1.377c1.878,0.66,3.738,0.294,5.502-0.599c1.802-0.913,4.026-2.663,4.501-4.708
		C612.029,468.377,609.367,465.605,607.166,467.28z"/>
	<path d="M151.355,462.124c-6.572,5.646-15.149,8.033-23.265,10.578c-0.502,0.157-0.732,0.992-0.162,1.242
		c10.168,4.459,20.541,0.162,28.598-6.649C160.116,464.259,154.915,459.065,151.355,462.124z"/>
	<path d="M69.227,463.985c3.006-1.452,1.653-6.828-1.751-6.464c-4.554,0.487-8.488,1.121-12.669-1.299
		c-4.112-2.38-6.044-6.005-8.544-9.821c-0.671-1.024-2.558-1.02-2.827,0.369C40.847,460.128,58.333,469.246,69.227,463.985z"/>
	<path d="M44.348,439.823c0.024-0.093,0.047-0.186,0.071-0.279c0.299-1.174-0.004-2.42-0.868-3.284
		c-0.851-0.851-2.122-1.188-3.284-0.868c-1.135,0.313-2.045,1.223-2.357,2.357c-0.161,0.598-0.161,1.196,0,1.794
		c0.16,0.572,0.45,1.068,0.868,1.489c0.081,0.065,0.163,0.131,0.244,0.196c0.398,0.395,0.866,0.668,1.406,0.82
		c0.565,0.152,1.13,0.152,1.694,0C43.177,441.759,44.076,440.894,44.348,439.823z"/>
	<path d="M599.768,430.801c0.409-0.818,0.142-2.222-0.966-2.376c-4.525-0.627-9.22,1.033-13.866,0.747
		c-5.244-0.323-10.473-2.358-14.286-6.011c-8.539-8.178-8.375-20.508-3.954-30.64c0.473-1.084-0.708-2.094-1.656-1.278
		c-10.426,8.967-9.626,26.649-0.819,36.371c4.586,5.063,11.191,8.232,17.93,9.066C587.777,437.377,596.869,436.604,599.768,430.801z
		"/>
	<path d="M104.13,393.585c-11.728,14.254-3.921,37.439,14.383,41.465c5.134,1.129,6.859-5.86,2.131-7.729
		c-13.661-5.402-19.482-18.618-14.595-32.619C106.417,393.649,104.856,392.702,104.13,393.585z"/>
</g>
<g id="_2">
</g>
</svg>
